<?xml version="1.0" standalone="no"?>
<!DOCTYPE svg PUBLIC "-//W3C//DTD SVG 20010904//EN"
 "http://www.w3.org/TR/2001/REC-SVG-20010904/DTD/svg10.dtd">
<svg version="1.0" xmlns="http://www.w3.org/2000/svg"
 width="486.000000pt" height="486.000000pt" viewBox="0 0 486.000000 486.000000"
 preserveAspectRatio="xMidYMid meet">
<metadata>
Created by potrace 1.14, written by Peter Selinger 2001-2017
</metadata>
<g transform="translate(0.000000,486.000000) scale(0.100000,-0.100000)"
fill="#000000" stroke="none">
<path d="M2085 4374 c-238 -36 -426 -123 -552 -257 -89 -94 -170 -290 -213
-518 -7 -35 -22 -64 -49 -97 -60 -72 -109 -159 -138 -247 -24 -71 -27 -96 -27
-230 -1 -177 16 -253 92 -400 39 -74 64 -108 149 -192 57 -56 103 -105 103
-107 0 -2 -15 -9 -33 -15 -39 -13 -80 -42 -273 -190 -238 -183 -430 -382 -509
-528 -21 -37 -66 -117 -100 -178 -208 -365 -269 -581 -282 -998 l-6 -197 703
2 702 3 60 170 c32 94 81 233 108 310 75 218 103 280 165 363 25 35 80 99 122
143 62 65 92 88 157 119 118 57 193 74 294 66 198 -15 391 -127 555 -321 59
-70 267 -408 308 -501 12 -27 46 -116 74 -199 l53 -150 465 -3 465 -2 -14 62
c-20 89 -36 135 -126 373 -86 226 -98 251 -251 513 -114 193 -174 275 -327
447 -129 145 -151 165 -322 303 -105 84 -156 118 -215 142 -43 18 -81 35 -86
39 -4 4 28 15 70 25 92 22 224 75 294 117 51 32 145 129 159 166 7 17 20 23
67 28 162 17 318 51 407 89 56 23 134 84 151 117 28 53 14 128 -34 183 -23 27
-163 116 -267 169 -49 26 -106 63 -127 83 l-38 38 47 40 c52 45 74 87 74 144
0 25 6 45 17 53 9 8 25 33 35 57 22 49 15 89 -25 132 -13 14 -29 51 -36 83
-15 70 -47 110 -115 144 -28 14 -64 41 -79 59 -33 39 -85 68 -140 78 -34 6
-43 16 -95 94 -76 116 -110 148 -222 207 l-95 50 -140 0 c-131 0 -144 -2 -207
-28 l-67 -28 -53 39 c-80 59 -128 80 -245 108 -104 24 -312 39 -388 28z m1725
-761 c145 -70 194 -143 146 -216 -38 -57 -240 -157 -318 -157 -24 0 -23 12 3
28 11 7 31 36 45 65 43 94 27 205 -43 287 l-37 43 60 -5 c43 -3 82 -15 144
-45z m-975 -11 c70 -22 186 -77 233 -112 91 -67 79 -209 -24 -279 -66 -45
-148 -64 -306 -69 -82 -2 -155 -1 -164 2 -15 6 -15 8 -2 24 83 98 95 247 30
374 l-30 56 82 10 c117 13 116 14 181 -6z m581 -85 c21 -19 26 -29 20 -50 -15
-60 -88 -51 -94 12 -2 18 -1 39 2 47 8 21 42 17 72 -9z m-1166 -37 c22 -22 27
-79 8 -98 -29 -29 -88 1 -88 45 0 28 29 72 48 73 6 0 21 -9 32 -20z m993 -102
l4 -106 -44 21 c-42 20 -43 22 -43 68 0 26 -3 54 -6 62 -3 9 10 26 38 46 23
17 44 28 45 24 1 -4 3 -56 6 -115z m-1242 99 l86 0 -16 -31 c-8 -17 -15 -55
-16 -83 0 -29 -3 -53 -6 -53 -15 0 -134 86 -182 132 l-52 48 50 -7 c28 -3 89
-7 136 -6z m1344 -370 c61 -19 129 -38 153 -41 39 -6 187 13 256 32 26 7 34 3
76 -38 26 -25 81 -63 121 -84 118 -62 240 -138 276 -173 52 -52 57 -130 10
-174 -69 -67 -157 -103 -346 -140 -180 -37 -421 -28 -718 27 -113 21 -678 215
-781 268 -81 42 -108 118 -58 165 l24 22 106 -16 c118 -17 171 -14 286 17 132
35 400 176 400 209 0 6 19 0 43 -14 23 -14 92 -41 152 -60z m-735 -440 c420
-154 578 -196 850 -222 107 -10 140 -16 135 -26 -3 -4 -43 -20 -88 -34 -65
-21 -102 -26 -182 -26 -93 0 -239 22 -276 41 -9 5 -84 30 -167 55 -192 58
-423 167 -492 233 -16 15 -50 74 -50 86 0 3 21 -6 48 -19 26 -13 126 -53 222
-88z"/>
</g>
</svg>
