<svg width="227" height="226" viewBox="0 0 227 226" fill="none" xmlns="http://www.w3.org/2000/svg">
<path d="M172.292 3.76785L28.4552 22.9607C13.1271 25.006 2.35922 39.09 4.40452 54.4181L23.5974 198.255C25.6427 213.583 39.7266 224.351 55.0547 222.306L198.892 203.113C214.22 201.068 224.988 186.984 222.943 171.656L203.75 27.8185C201.704 12.4904 187.62 1.72254 172.292 3.76785Z" fill="#FFEFB8"/>
<g clip-path="url(#clip0_1113_1025)">
<path d="M42.2956 206.194C35.3533 152.017 28.411 97.8405 21.4688 43.6641C75.6571 36.7203 129.842 29.7769 184.03 22.8331C184.067 23.0295 184.112 23.2249 184.137 23.4228C191.026 77.1802 197.914 130.938 204.803 184.695C204.903 185.475 204.977 185.379 204.197 185.479C150.428 192.369 96.6587 199.259 42.8933 206.148C42.6954 206.174 42.495 206.18 42.2956 206.194ZM78.4257 72.6384C78.2114 72.5357 78.0681 72.4634 77.9208 72.3915C76.5985 71.7367 75.2612 71.1192 73.8869 70.5815C72.9526 70.2161 71.9992 69.9163 71.0112 69.7471C69.1848 69.4368 67.5855 69.8824 66.2156 71.1346C65.9331 71.3917 65.6466 71.6493 65.4044 71.9445C63.6114 74.1108 61.9001 76.3297 61.0438 79.0661C60.9621 79.3211 60.8581 79.4015 60.575 79.3471C59.6613 79.1723 58.8942 79.4954 58.241 80.1234C57.7882 80.56 57.4647 81.0826 57.1933 81.642C56.7131 82.6343 56.4334 83.6837 56.2854 84.7755C56.2622 84.9638 56.2578 85.1142 56.0125 85.1693C54.9583 85.407 54.2501 86.0972 53.7862 87.0322C52.9963 88.6243 52.7831 90.2844 53.3391 92.0077C53.3969 92.1817 53.4508 92.3562 53.527 92.52C53.6086 92.6949 53.5813 92.8207 53.441 92.9569C52.8068 93.5785 52.5812 94.3726 52.5096 95.2297C52.3751 96.7654 52.6859 98.2361 53.1552 99.6826C54.0159 102.337 55.5953 104.505 57.713 106.288C60.4228 108.568 63.4691 110.303 66.6679 111.783C67.4439 112.145 68.2416 112.46 69.0841 112.633C69.3836 112.693 69.466 112.812 69.4296 113.113C69.2947 114.215 69.2035 115.319 69.0608 116.422C68.4541 121.075 67.8071 125.721 67.2325 130.377C66.219 138.596 65.4205 146.831 65.3312 155.121C65.3078 157.124 65.4028 159.127 65.7238 161.109C65.9153 162.295 66.1605 163.471 66.6686 164.573C67.226 165.783 68.1383 166.439 69.4993 166.411C69.755 166.406 70.0112 166.405 70.26 166.377C71.4101 166.241 72.4885 165.854 73.5292 165.358C75.4091 164.455 77.1115 163.274 78.7847 162.05C81.6474 159.952 84.4009 157.71 87.1321 155.447C87.5352 155.115 87.4324 155.113 87.8713 155.368C89.0384 156.043 90.179 156.757 91.2838 157.53C91.4399 157.64 91.6173 157.732 91.7294 157.899C91.6057 158.041 91.4725 157.987 91.3551 157.994C90.4431 158.048 89.5404 158.144 88.6634 158.41C87.8548 158.656 87.0887 158.986 86.523 159.651C85.8369 160.452 85.8312 161.423 86.5 162.241C86.8039 162.612 87.1866 162.89 87.6066 163.12C88.167 163.431 88.7664 163.646 89.3769 163.824C90.323 164.098 91.2882 164.274 92.2539 164.454C93.3079 164.646 94.3629 164.846 95.4089 165.098C95.6735 165.163 95.7908 165.278 95.8499 165.555C96.0188 166.349 96.4237 167.047 96.894 167.7C97.9744 169.207 99.3541 170.371 100.998 171.225C101.243 171.355 101.567 171.416 101.47 171.831C101.449 171.917 101.543 172.031 101.591 172.127C102.496 174.086 103.913 175.541 105.856 176.483C106.218 176.657 106.588 176.807 106.961 176.953C107.14 177.024 107.266 177.083 107.277 177.322C107.299 177.769 107.522 178.155 107.762 178.522C108.271 179.293 108.944 179.901 109.721 180.393C110.684 181.007 111.749 181.38 112.854 181.632C114.946 182.106 117.06 182.478 119.184 182.797C122.526 183.308 125.653 182.686 128.624 181.095C130.385 180.151 131.969 178.97 133.489 177.695C133.753 177.471 134.005 177.254 134.392 177.263C134.621 177.265 134.855 177.176 135.082 177.108C138.419 176.124 141.687 174.94 144.816 173.415C151.484 170.167 157.65 166.123 163.472 161.539C165.507 159.938 167.437 158.223 169.156 156.279C169.931 155.403 170.637 154.48 171.2 153.454C171.794 152.368 172.155 151.213 172.197 149.97C172.222 149.276 172.173 148.588 172.078 147.903C171.598 144.529 170.865 141.207 169.878 137.942C169.79 137.649 169.841 137.525 170.109 137.4C170.719 137.116 171.298 136.77 171.798 136.304C172.806 135.366 172.999 134.257 172.358 133.041C172.077 132.509 171.708 132.032 171.34 131.558C170.613 130.626 169.868 129.704 169.174 128.748C166.708 125.357 164.546 121.78 162.54 118.101C161.287 115.801 160.126 113.453 158.792 111.198C157.685 109.329 156.441 107.56 154.814 106.096C152.438 103.959 149.689 102.67 146.463 102.484C146.216 102.469 145.962 102.549 145.72 102.442C145.733 102.389 145.731 102.345 145.751 102.319C145.839 102.205 145.936 102.094 146.032 101.984C147.506 100.256 148.724 98.369 149.674 96.3029C151.348 92.657 151.772 88.8836 150.949 84.9543C150.561 83.099 150.036 81.281 149.485 79.4743C149.412 79.2431 149.303 79.0086 149.34 78.7081C149.713 78.8457 150.049 78.9762 150.391 79.094C152.013 79.6514 153.661 79.9292 155.38 79.6181C157.84 79.1729 159.641 77.321 159.975 74.8448C160.182 73.3196 159.855 71.8746 159.243 70.4859C158.353 68.4701 156.999 66.7939 155.404 65.3024C152.468 62.5549 149.064 60.5537 145.347 59.0619C141.81 57.6458 138.121 56.8406 134.347 56.4131C133.547 56.3225 132.77 56.1973 132.083 55.7331C131.859 55.5843 131.594 55.4881 131.344 55.3821C126.238 53.1809 120.898 52.1653 115.345 52.2577C112.146 52.3127 108.999 52.7514 105.895 53.5476C102.454 54.4302 99.1903 55.7358 96.139 57.5624C94.4467 58.576 92.8402 59.7047 91.4184 61.0741C91.1339 61.3472 90.8612 61.4965 90.4818 61.5214C89.8798 61.5631 89.2887 61.6901 88.7142 61.8544C83.4211 63.3609 80.054 66.7859 78.5827 72.078C78.5196 72.232 78.4833 72.4102 78.4257 72.6384Z" fill="#FFEE00"/>
<path d="M42.2963 206.191C42.4957 206.177 42.6961 206.171 42.894 206.146C96.6632 199.256 150.432 192.366 204.198 185.476C204.978 185.376 204.903 185.473 204.803 184.693C197.915 130.935 191.026 77.1778 184.138 23.4204C184.112 23.2225 184.068 23.0271 184.031 22.8307C184.068 22.8495 184.136 22.762 184.146 22.8711C184.161 23.0152 184.183 23.1582 184.202 23.3057C191.127 77.3464 198.052 131.387 204.98 185.455C204.72 185.488 204.456 185.522 204.196 185.555C150.396 192.449 96.5994 199.343 42.7982 206.229C42.6391 206.25 42.4454 206.401 42.2963 206.191Z" fill="#A2EAF0"/>
<path d="M78.426 72.635C78.4836 72.4067 78.5204 72.2324 78.5694 72.0605C80.0441 66.7641 83.4117 63.343 88.7009 61.837C89.2753 61.6726 89.8698 61.5412 90.4685 61.504C90.8517 61.4785 91.1206 61.3297 91.4051 61.0566C92.8313 59.6907 94.4373 58.558 96.1257 57.545C99.177 55.7184 102.441 54.4127 105.881 53.5301C108.982 52.7345 112.132 52.2953 115.332 52.2403C120.885 52.1479 126.225 53.1634 131.331 55.3646C131.581 55.4745 131.846 55.5669 132.07 55.7156C132.76 56.1793 133.533 56.305 134.334 56.3957C138.108 56.8231 141.796 57.6284 145.334 59.0445C149.054 60.5318 152.454 62.5336 155.39 65.2849C156.985 66.7765 158.34 68.4526 159.229 70.4684C159.841 71.8572 160.168 73.2983 159.962 74.8274C159.628 77.2997 157.826 79.1515 155.367 79.6007C153.648 79.9117 151.999 79.6339 150.378 79.0765C150.035 78.9587 149.699 78.8283 149.327 78.6906C149.29 78.9911 149.402 79.2212 149.472 79.4568C150.027 81.267 150.548 83.0816 150.935 84.9368C151.758 88.8661 151.335 92.6434 149.66 96.2854C148.71 98.3515 147.493 100.239 146.018 101.966C145.922 102.077 145.83 102.187 145.738 102.302C145.718 102.328 145.719 102.367 145.706 102.424C145.949 102.531 146.203 102.455 146.449 102.467C149.676 102.653 152.42 103.942 154.8 106.078C156.427 107.542 157.672 109.311 158.779 111.181C160.113 113.435 161.277 115.783 162.527 118.084C164.529 121.763 166.694 125.339 169.16 128.73C169.855 129.687 170.599 130.605 171.327 131.541C171.695 132.014 172.064 132.492 172.345 133.024C172.985 134.235 172.792 135.345 171.785 136.286C171.288 136.748 170.709 137.094 170.095 137.382C169.827 137.507 169.776 137.632 169.865 137.924C170.851 141.186 171.584 144.507 172.064 147.885C172.16 148.571 172.209 149.263 172.183 149.952C172.142 151.196 171.781 152.351 171.186 153.436C170.624 154.463 169.918 155.389 169.143 156.262C167.424 158.206 165.494 159.92 163.459 161.522C157.637 166.105 151.474 170.149 144.803 173.398C141.674 174.923 138.406 176.107 135.069 177.09C134.841 177.159 134.608 177.248 134.379 177.246C133.992 177.24 133.743 177.453 133.476 177.677C131.956 178.956 130.371 180.134 128.611 181.077C125.64 182.669 122.513 183.29 119.17 182.78C117.046 182.456 114.936 182.088 112.841 181.615C111.736 181.366 110.671 180.994 109.708 180.376C108.931 179.88 108.258 179.276 107.749 178.505C107.508 178.137 107.282 177.752 107.264 177.305C107.253 177.066 107.126 177.003 106.948 176.935C106.575 176.79 106.204 176.64 105.843 176.465C103.9 175.527 102.483 174.068 101.577 172.11C101.533 172.013 101.436 171.899 101.456 171.814C101.553 171.399 101.23 171.338 100.984 171.208C99.3407 170.353 97.9615 169.193 96.8806 167.683C96.4103 167.029 96.0093 166.331 95.8366 165.537C95.7775 165.261 95.6602 165.146 95.3955 165.081C94.3535 164.828 93.2989 164.632 92.2405 164.436C91.2753 164.26 90.3097 164.08 89.3636 163.807C88.7492 163.629 88.1537 163.414 87.5932 163.103C87.1772 162.872 86.7944 162.594 86.4866 162.223C85.8145 161.41 85.8236 160.435 86.5097 159.633C87.0753 158.969 87.8415 158.638 88.6501 158.393C89.527 158.126 90.4297 158.03 91.3418 157.977C91.4592 157.969 91.5923 158.023 91.7161 157.881C91.6084 157.718 91.4305 157.622 91.2705 157.512C90.1657 156.739 89.0212 156.026 87.858 155.351C87.4151 155.096 87.518 155.098 87.1187 155.43C84.3876 157.692 81.634 159.934 78.7714 162.033C77.0987 163.261 75.3924 164.442 73.5159 165.341C72.4757 165.841 71.4006 166.223 70.2467 166.359C69.9939 166.388 69.7378 166.389 69.4859 166.394C68.1288 166.421 67.2126 165.766 66.6552 164.555C66.1472 163.453 65.9019 162.278 65.7105 161.091C65.3894 159.109 65.2949 157.11 65.3178 155.104C65.4111 146.813 66.2095 138.578 67.2191 130.36C67.7938 125.703 68.4447 121.057 69.0475 116.404C69.1906 115.305 69.2813 114.197 69.4162 113.095C69.4532 112.799 69.3703 112.675 69.0707 112.615C68.2283 112.443 67.4345 112.127 66.6546 111.765C63.4552 110.282 60.4055 108.551 57.6997 106.271C55.5819 104.488 54.0026 102.32 53.1418 99.6651C52.6725 98.2187 52.3618 96.7479 52.4963 95.2123C52.5723 94.3585 52.7979 93.5645 53.4277 92.9395C53.5641 92.8037 53.5914 92.6779 53.5137 92.5025C53.4375 92.3387 53.3836 92.1642 53.3258 91.9902C52.7697 90.2669 52.983 88.6068 53.7728 87.0148C54.2367 86.0798 54.9411 85.39 55.9991 85.1519C56.2445 85.0968 56.2489 84.9463 56.2721 84.758C56.4206 83.6702 56.6997 82.6168 57.1799 81.6245C57.4514 81.0652 57.7744 80.5387 58.2277 80.1059C58.8847 79.4774 59.6523 79.1582 60.5617 79.3296C60.8447 79.384 60.9488 79.3037 61.0305 79.0487C61.8862 76.3084 63.5981 74.0933 65.3911 71.9271C65.6338 71.6357 65.9197 71.3742 66.2023 71.1171C67.5721 69.8649 69.171 69.4155 70.9979 69.7296C71.9898 69.8983 72.9432 70.1981 73.8735 70.564C75.2479 71.1018 76.5852 71.7192 77.9075 72.3741C78.0684 72.4599 78.2112 72.5284 78.426 72.635ZM108.743 161.915C108.767 161.92 108.796 161.928 108.82 161.933C108.805 161.911 108.794 161.889 108.78 161.867C108.601 161.46 108.29 161.149 108.036 160.799C107.355 159.857 106.656 158.925 105.968 157.988C105.772 157.725 105.548 157.548 105.174 157.644C105.194 157.858 105.329 157.987 105.429 158.128C106.166 159.165 106.92 160.189 107.639 161.24C107.916 161.65 108.254 161.887 108.743 161.915ZM98.3993 166.084L98.3867 166.078C97.902 165.805 97.3684 165.672 96.837 165.496C96.7632 165.813 96.8977 166.001 96.9963 166.185C97.2599 166.704 97.5894 167.182 97.9553 167.636C99.2071 169.187 100.787 170.282 102.647 170.979C104.938 171.833 107.346 172.222 109.707 172.799C109.986 172.878 110.267 172.948 110.539 173.044C110.766 173.121 110.902 173.285 110.856 173.543C110.815 173.781 110.603 173.907 110.314 173.873C110.19 173.858 110.07 173.814 109.944 173.783C107.868 173.283 105.789 172.781 103.713 172.282C103.319 172.131 102.932 171.968 102.45 171.903C102.846 172.685 103.282 173.35 103.838 173.934C105.364 175.529 107.287 176.316 109.42 176.654C109.795 176.712 110.173 176.798 110.555 176.737C110.835 176.831 111.132 176.805 111.42 176.835C111.727 176.867 112.037 176.879 112.341 176.918C112.59 176.95 112.736 177.108 112.722 177.367C112.705 177.629 112.526 177.743 112.279 177.759C112.19 177.766 112.098 177.758 112.007 177.754C110.862 177.684 109.718 177.621 108.59 177.403C108.473 177.383 108.348 177.3 108.236 177.417C108.566 178.818 110.826 180.362 113.047 180.705C113.129 180.789 113.244 180.794 113.35 180.816C115.433 181.251 117.523 181.654 119.634 181.939C122.419 182.312 125.068 181.866 127.585 180.609C129.071 179.866 130.474 178.993 131.762 177.94C132.666 177.201 133.551 176.449 134.455 175.714C134.844 175.396 135.05 175.436 135.248 175.872C135.331 176.055 135.421 176.079 135.58 176.027C135.89 175.924 136.2 175.821 136.514 175.718C139.988 174.606 143.349 173.225 146.579 171.529C150.825 169.301 154.858 166.73 158.766 163.961C161.056 162.342 163.283 160.641 165.374 158.768C167.044 157.272 168.633 155.704 169.918 153.847C171.052 152.203 171.529 150.415 171.269 148.421C171.013 146.45 170.638 144.506 170.204 142.57C169.684 140.263 169.075 137.978 168.239 135.762C168.126 135.465 167.995 135.423 167.723 135.462C166.781 135.586 165.865 135.822 164.96 136.088C161.862 136.994 158.876 138.193 155.959 139.56C155.479 139.784 155.48 139.791 155.626 140.345C155.629 140.399 155.624 140.455 155.635 140.509C156.129 142.674 156.627 144.835 156.86 147.049C156.867 147.135 156.871 147.229 156.991 147.308C157.168 147.274 157.32 147.136 157.484 147.032C157.806 146.829 158.12 146.607 158.451 146.415C158.649 146.299 158.845 146.357 158.99 146.528C159.129 146.691 159.099 146.951 158.923 147.116C158.832 147.203 158.722 147.268 158.612 147.337C157.503 148.035 156.432 148.792 155.37 149.555C153.554 150.86 151.767 152.21 149.998 153.584C145.481 157.085 141.11 160.769 136.734 164.442C136.499 164.641 136.407 164.819 136.476 165.137C136.6 165.705 136.678 166.283 136.748 166.861C136.788 167.176 136.648 167.347 136.4 167.379C136.156 167.411 135.981 167.275 135.907 166.977C135.865 166.801 135.849 166.618 135.826 166.439C135.73 165.718 135.598 165.001 135.345 164.316C134.777 162.776 133.883 161.435 132.811 160.204C132.764 160.15 132.71 160.094 132.623 160.097C132.489 160.253 132.53 160.476 132.426 160.647C132.318 160.823 132.163 160.906 131.967 160.856C131.772 160.81 131.648 160.676 131.642 160.472C131.636 160.366 131.666 160.256 131.688 160.15C131.818 159.507 132.006 158.879 132.239 158.265C132.916 156.475 134.04 154.99 135.414 153.682C136.008 153.117 136.593 152.545 137.111 151.907C137.551 151.365 137.926 150.788 138.041 150.08C138.165 149.267 137.788 148.598 137.023 148.293C136.678 148.156 136.322 148.115 135.951 148.147C135.143 148.215 134.451 148.564 133.808 149.029C132.974 149.632 132.285 150.379 131.637 151.172C130.438 152.643 129.419 154.237 128.388 155.825C127.654 156.956 126.914 158.076 126.084 159.141C124.72 160.897 123.041 162.26 121.029 163.212C118.999 164.174 116.898 164.925 114.706 165.426C114.358 165.506 114.034 165.536 113.767 165.207C113.66 165.079 113.459 165.022 113.296 164.944C110.975 163.854 108.625 162.814 106.222 161.915C102.668 160.584 99.0471 159.505 95.2672 159.031C93.3833 158.796 91.4959 158.686 89.6123 159.038C88.8534 159.179 88.1291 159.406 87.5042 159.884C87.1629 160.145 86.8829 160.453 86.9038 160.924C86.8703 161.401 87.1798 161.693 87.4985 161.963C88.0074 162.395 88.6214 162.632 89.2465 162.832C90.5832 163.26 91.9712 163.473 93.3485 163.726C95.1056 164.049 96.8329 164.479 98.4954 165.141C100.207 165.821 101.961 166.361 103.783 166.668C106.374 167.101 108.919 167.69 111.323 168.786C111.514 168.892 111.715 168.981 111.892 169.104C112.057 169.221 112.1 169.401 112.01 169.59C111.909 169.792 111.748 169.887 111.519 169.826C111.433 169.802 111.35 169.765 111.266 169.724C109.189 168.721 106.984 168.132 104.724 167.731C102.682 167.369 100.662 166.938 98.729 166.164C98.679 166.143 98.6236 166.142 98.5712 166.133C98.5119 166.101 98.4619 166.08 98.3993 166.084ZM137.403 69.8852C137.205 69.9028 137.005 69.9127 136.807 69.938C134.639 70.2237 132.475 70.5167 130.308 70.8063C130.18 70.8227 130.057 70.8464 129.928 70.855C129.701 70.8722 129.616 70.9817 129.63 71.2087C129.653 71.5726 129.656 71.935 129.647 72.299C129.481 79.8021 123.351 85.8883 115.844 85.9431C111.735 85.9728 108.254 84.4507 105.416 81.4739C105.283 81.3331 105.188 81.1402 104.975 81.0846C104.803 81.2171 104.754 81.4206 104.666 81.5936C104.217 82.4951 103.683 83.3406 103.053 84.1193C99.0124 89.1214 92.1834 90.738 86.3253 88.0811C85.5799 87.7427 85.5722 87.7437 85.087 88.3896C85.0232 88.4767 84.9599 88.5676 84.9005 88.658C83.9862 90.0175 83.3731 91.512 82.9884 93.0955C82.7507 94.0725 82.6373 95.0652 82.604 96.0673C82.5903 96.4832 82.6302 96.5175 83.0399 96.4216C83.6106 96.2893 84.1839 96.208 84.7615 96.13C87.3594 95.7813 89.9592 95.4482 92.548 95.0297C94.7581 94.6715 96.978 94.3594 99.1906 94.0207C104.59 93.1869 110.004 92.4734 115.449 91.9965C116.771 91.8823 118.1 91.7869 119.423 91.712C121.75 91.5835 124.077 91.4666 126.404 91.4328C128.333 91.4025 130.264 91.3917 132.186 91.591C133.422 91.7206 134.643 91.927 135.75 92.5344C136.59 92.9947 137.251 93.6279 137.589 94.5429C138.102 95.9286 137.799 97.1979 136.979 98.3679C136.092 99.6332 134.827 100.411 133.427 100.992C132.872 101.221 132.301 101.413 131.723 101.581C131.21 101.73 131.215 101.737 131.277 102.25C131.323 102.646 131.386 103.044 131.418 103.443C131.48 104.204 131.558 104.967 131.522 105.733C131.496 106.304 131.41 106.859 131.098 107.353C130.62 108.116 129.763 108.293 129.017 107.793C128.646 107.545 128.367 107.214 128.13 106.842C127.834 106.379 127.612 105.879 127.406 105.377C127.118 104.668 126.849 103.953 126.497 103.273C126.308 102.902 126.3 102.903 125.915 103.008C123.619 103.649 121.294 104.188 118.971 104.706C115.841 105.403 112.699 106.023 109.541 106.558C105.376 107.265 101.191 107.844 96.9786 108.183C95.71 108.286 94.4356 108.375 93.1633 108.388C92.7223 108.393 92.2793 108.415 91.8393 108.428C91.842 108.51 91.8367 108.53 91.8421 108.542C91.8752 108.585 91.9088 108.632 91.9521 108.662C93.7111 109.923 95.608 110.907 97.6809 111.54C97.8196 111.668 98.0084 111.695 98.1774 111.753C99.8046 112.293 101.475 112.651 103.16 112.928C106.894 113.542 110.656 113.628 114.422 113.441C117.076 113.31 119.717 113.059 122.345 112.604C125.092 112.125 127.802 111.518 130.452 110.65C134.177 109.435 137.694 107.797 140.882 105.495C144.358 102.983 147.065 99.8244 148.872 95.9171C150.116 93.2217 150.685 90.3959 150.426 87.4276C150.273 85.6449 149.869 83.91 149.381 82.1899C149.043 80.9988 148.663 79.8208 148.348 78.6267C148.258 78.2951 148.127 78.099 147.826 77.9364C145.293 76.5768 143.031 74.8394 140.935 72.8837C140.003 72.0131 139.127 71.0881 138.361 70.0662C138.185 69.8323 138.002 69.7218 137.713 69.81C137.619 69.8419 137.511 69.8597 137.403 69.8852ZM87.406 137.85C87.2448 137.669 87.0237 137.575 86.8264 137.451C86.362 137.151 86.3586 137.156 85.9576 137.535C84.3566 139.045 82.7518 140.556 81.069 141.983C80.6708 142.322 80.2355 142.618 80.2534 143.251C80.263 143.51 80.0237 143.643 79.8033 143.616C79.579 143.59 79.4232 143.42 79.4253 143.16C79.4257 142.978 79.4577 142.797 79.4819 142.616C80.0368 138.483 80.3884 134.332 80.6919 130.175C81.0917 124.678 81.3998 119.172 81.6128 113.662C81.6522 112.616 81.8169 111.562 81.6151 110.511C81.588 110.36 81.6778 110.231 81.7483 110.103C81.8988 109.831 82.0538 109.563 82.1922 109.289C82.6108 108.462 83.0333 107.635 83.2595 106.723C83.3592 106.331 83.3374 106.007 83.1247 105.64C82.67 104.862 82.7864 104.046 83.369 103.36C83.5952 103.095 83.8683 102.886 84.1593 102.695C84.2721 102.621 84.4351 102.601 84.4902 102.384C84.3825 102.375 84.2825 102.364 84.1825 102.353C83.6559 102.306 83.1284 102.283 82.6065 102.212C81.9157 102.115 81.2581 101.907 80.6746 101.509C79.615 100.781 79.2957 99.5202 79.8832 98.38C80.1929 97.7803 80.6529 97.3072 81.259 97.0205C81.6311 96.8466 81.7279 96.6173 81.7335 96.2301C81.7641 93.8834 82.3065 91.6526 83.3792 89.5589C83.4954 89.3271 83.5491 89.0994 83.5545 88.8344C83.5751 88.1022 83.4438 87.3854 83.3785 86.6602C83.3503 86.3483 83.2279 86.1313 82.9885 85.9253C81.7955 84.895 80.7976 83.6937 80.0141 82.3191C79.9536 82.2164 79.923 82.0704 79.7347 82.0473C79.5415 82.4782 79.475 82.9443 79.4483 83.4131C79.3841 84.4822 79.3326 85.5577 79.2966 86.6311C79.2286 88.809 78.2417 90.5249 76.6798 91.9714C76.5071 92.1315 76.3317 92.2092 76.0889 92.1614C74.1589 91.7817 72.3335 91.14 70.661 90.0922C69.4262 89.3197 68.3257 88.3958 67.562 87.1449C66.1745 84.8734 66.0271 82.5535 67.4416 80.2346C68.1711 79.0329 69.0878 77.9689 70.022 76.9184C70.5152 76.3661 71.1222 76.1779 71.8481 76.3333C72.3997 76.452 72.9383 76.6235 73.477 76.7951C74.6203 77.1613 75.7752 77.4945 76.9689 77.6689C77.4151 77.734 77.8593 77.8151 78.3113 77.7414C78.3729 77.5757 78.3346 77.4308 78.3128 77.2916C78.1498 76.2042 78.1169 75.1159 78.2494 74.0262C78.2919 73.65 78.1739 73.4679 77.8497 73.3083C76.1158 72.4577 74.3732 71.6319 72.5425 71.0107C72.0601 70.8477 71.5668 70.7216 71.0647 70.6203C69.4129 70.2877 67.9633 70.6706 66.7271 71.8269C66.5689 71.9773 66.4063 72.1243 66.2574 72.2854C64.8636 73.8128 63.6956 75.5007 62.688 77.302C62.3121 77.9694 62.0785 78.7014 61.8362 79.4266C61.7795 79.5995 61.7101 79.7662 61.9027 79.915C62.7496 80.5835 63.2192 81.5093 63.6002 82.4819C64.4914 84.7578 65.5235 86.9643 66.8114 89.0434C67.0698 89.4599 67.2624 89.9164 67.3983 90.392C67.6799 91.3893 67.2755 92.2654 66.3223 92.6754C65.7433 92.9271 65.1257 92.9707 64.5006 92.9246C64.3254 92.9116 64.1529 92.8272 63.9731 92.9015C64.3781 95.5079 64.3517 95.6099 62.9025 96.9196C62.9038 97.022 62.9782 97.0795 63.0347 97.1511C63.5743 97.7919 63.9942 98.4835 63.899 99.3713C63.8834 99.5271 63.9647 99.6074 64.0968 99.6536C64.2168 99.6974 64.3334 99.7455 64.4539 99.7932C67.085 100.781 69.419 102.221 71.2995 104.339C71.3964 104.449 71.5039 104.549 71.5897 104.665C71.7242 104.852 71.7015 105.045 71.5409 105.207C71.3731 105.375 71.1722 105.377 70.9966 105.238C70.8254 105.102 70.6749 104.944 70.5245 104.785C69.0995 103.237 67.4299 102.027 65.5005 101.189C65.0326 100.985 64.5555 100.802 64.0978 100.584C63.7241 100.407 63.4046 100.346 63.0655 100.685C62.8628 100.888 62.5554 100.951 62.2615 100.997C61.7663 101.072 61.2785 101.02 60.8016 100.9C59.4745 100.577 58.2977 99.9195 57.1436 99.2233C56.8704 99.0611 56.8062 98.8367 56.9137 98.6296C57.0343 98.4012 57.2826 98.3378 57.5737 98.4859C57.7846 98.593 57.9825 98.7214 58.1905 98.8368C58.9682 99.2735 59.7624 99.6844 60.6167 99.9496C61.1058 100.104 61.6016 100.218 62.1191 100.132C62.8145 100.019 63.1565 99.5177 63.0093 98.8306C62.931 98.4659 62.7413 98.155 62.5075 97.8695C62.208 97.5016 61.8591 97.1795 61.4758 96.8973C60.1798 95.9552 58.9007 94.9911 57.6351 94.0095C57.3768 93.8099 57.0909 93.6414 56.8032 93.489C56.4513 93.2975 56.0811 93.1477 55.6792 93.0888C54.6583 92.9396 53.8891 93.401 53.5486 94.3754C53.4106 94.7756 53.3488 95.1858 53.3438 95.6085C53.3116 97.4505 53.8007 99.1745 54.5458 100.834C55.4844 102.926 56.9632 104.587 58.7343 106.004C61.0332 107.847 63.574 109.301 66.2094 110.6C67.5565 111.263 68.9454 111.791 70.4324 112.038C70.5412 112.056 70.6465 112.078 70.7495 112.112C70.9715 112.182 71.0748 112.343 71.0566 112.57C71.0359 112.777 70.8981 112.933 70.7025 112.915C70.288 112.881 70.2854 113.138 70.2596 113.429C70.0215 115.818 69.7358 118.205 69.4098 120.586C68.4896 127.255 67.5654 133.924 67.002 140.638C66.5452 146.06 66.0883 151.483 66.2304 156.931C66.2604 158.15 66.3102 159.37 66.5546 160.569C66.5808 161.359 66.8034 162.111 66.9873 162.868C67.1209 163.419 67.3225 163.945 67.5914 164.443C67.955 165.126 68.517 165.48 69.2964 165.53C70.3258 165.592 71.2814 165.323 72.2167 164.959C73.9789 164.276 75.5567 163.261 77.091 162.185C80.2783 159.943 83.2956 157.481 86.2988 155.002C86.4058 154.914 86.5512 154.848 86.5681 154.672C86.536 154.637 86.5057 154.585 86.4629 154.559C85.0291 153.773 83.5947 152.982 82.1034 152.302C80.6561 151.533 79.1624 150.864 77.6721 150.192C76.7761 149.786 75.868 149.409 74.9696 149.016C74.5936 148.851 74.4824 148.692 74.5379 148.416C74.5875 148.157 74.7491 148.003 75.0056 147.942C75.6786 147.777 76.3477 147.612 77.0207 147.447C77.2578 147.389 77.5081 147.373 77.7164 147.244C77.6854 147.125 77.6116 147.103 77.5484 147.072C76.9652 146.768 76.3738 146.493 75.754 146.273C75.498 146.183 75.2788 146.073 75.289 145.752C75.2988 145.459 75.469 145.28 75.8477 145.188C76.1304 145.116 76.413 145.044 76.6977 144.988C79.7552 144.379 82.8331 144.269 85.93 144.614C86.9983 144.733 88.0452 144.962 89.1035 145.126C90.7314 145.58 92.353 146.047 93.8953 146.756C94.0756 146.839 94.2054 146.775 94.3366 146.66C94.6051 146.417 94.8824 146.18 95.1466 145.933C95.4954 145.608 95.4872 145.606 95.2143 145.23C93.9892 143.549 92.5837 142.03 91.0339 140.647C89.8924 139.618 88.7214 138.636 87.406 137.85ZM94.4105 142.805C94.4768 142.891 94.5358 142.982 94.6054 143.064C95.5658 144.187 96.4395 145.373 97.1388 146.676C97.4756 147.303 97.7672 147.948 97.7511 148.684C97.748 148.783 97.7701 148.863 97.8523 148.919C98.1192 149.094 98.3528 149.316 98.6866 149.459C98.6896 149.328 98.6961 149.257 98.6872 149.187C98.37 146.25 98.3478 143.306 98.4396 140.36C98.6017 135.193 99.0788 130.052 99.8112 124.933C99.8658 124.559 99.9836 124.185 99.9261 123.798C99.944 123.784 99.9493 123.764 99.9385 123.741C99.9918 123.695 99.9998 123.635 99.9875 123.57C100.026 123.411 100.053 123.25 100.108 123.097C100.187 122.877 100.356 122.785 100.582 122.823C100.812 122.861 100.93 123.015 100.928 123.244C100.925 123.406 100.89 123.568 100.868 123.733C99.8944 130.2 99.2799 136.699 99.271 143.247C99.2671 145.433 99.3534 147.615 99.6197 149.785C99.6586 150.119 99.7937 150.343 100.057 150.553C101.908 152.04 103.582 153.71 105.066 155.567C105.141 155.66 105.182 155.793 105.34 155.8C105.638 155.383 105.923 154.964 106.231 154.562C106.541 154.155 106.861 153.76 107.195 153.378C110.98 149.027 115.124 145.045 119.572 141.376C121.89 139.461 124.261 137.619 126.784 135.983C127.552 135.482 127.557 135.485 128.229 136.082C128.651 136.457 129.098 136.802 129.548 137.143C129.858 137.376 130.128 137.451 130.481 137.221C130.768 137.034 131.1 136.913 131.413 136.77C132.471 136.287 133.545 135.834 134.63 135.407C135.197 135.185 135.314 135.237 135.538 135.78C135.647 136.05 135.768 136.315 135.889 136.579C138.244 141.724 140.718 146.814 143.118 151.937C143.752 153.288 144.372 154.644 145.006 155.994C145.152 156.303 145.169 156.309 145.427 156.11C145.714 155.888 145.987 155.648 146.265 155.415C147.369 154.552 148.469 153.685 149.574 152.83C151.544 151.303 153.532 149.798 155.573 148.369C155.87 148.162 156.046 147.934 156.007 147.564C155.992 147.42 156.009 147.272 155.994 147.128C155.906 146.351 155.819 145.573 155.65 144.81C155.445 143.862 155.45 143.869 154.469 143.904C153.499 143.938 152.543 143.832 151.615 143.544C150.218 143.112 149.403 142.199 149.276 140.716C149.259 140.518 149.245 140.318 149.231 140.119C149.182 139.336 149.094 138.559 148.933 137.794C148.412 135.262 147.646 132.797 146.873 130.332C145.234 125.111 143.359 119.964 141.913 114.683C141.896 114.575 141.866 114.468 141.868 114.358C141.865 114.09 141.999 113.907 142.218 113.887C142.448 113.865 142.6 113.976 142.679 114.191C142.715 114.292 142.749 114.398 142.77 114.506C143.131 116.03 143.621 117.517 144.101 119.009C145.629 123.795 147.267 128.542 148.693 133.361C149.383 135.702 150.035 138.052 150.138 140.515C150.143 140.68 150.176 140.842 150.2 141.004C150.307 141.712 150.708 142.197 151.34 142.507C151.618 142.645 151.91 142.745 152.212 142.821C153.139 143.065 154.087 143.05 155.033 143.043C155.234 143.041 155.289 142.951 155.25 142.771C155.069 141.938 154.888 141.11 154.692 140.231C154.063 140.493 153.537 140.817 152.994 141.108C152.835 141.191 152.674 141.287 152.503 141.34C152.313 141.396 152.139 141.328 152.044 141.139C151.954 140.961 151.966 140.774 152.117 140.636C152.223 140.54 152.357 140.472 152.482 140.4C153.745 139.674 155.052 139.034 156.379 138.438C159.869 136.866 163.422 135.472 167.186 134.683C167.818 134.633 168.445 134.474 169.089 134.549C169.534 134.599 169.944 134.727 170.299 135.001C170.479 135.14 170.534 135.326 170.446 135.535C170.365 135.731 170.192 135.796 169.998 135.758C169.876 135.734 169.764 135.662 169.647 135.609C169.472 135.533 169.31 135.408 169.052 135.489C169.186 135.854 169.308 136.193 169.434 136.528C169.494 136.69 169.607 136.683 169.741 136.619C170.33 136.323 170.905 136.008 171.359 135.52C171.866 134.978 172.016 134.367 171.693 133.663C171.441 133.112 171.091 132.624 170.712 132.16C167.681 128.455 165.127 124.436 162.765 120.285C161.335 117.771 160.048 115.175 158.636 112.651C157.602 110.803 156.482 109.014 155.004 107.484C152.852 105.247 150.281 103.802 147.17 103.412C146.453 103.322 145.726 103.258 145.012 103.471C144.695 103.516 144.438 103.671 144.207 103.894C142.618 105.411 140.858 106.694 138.975 107.818C138.835 107.899 138.677 107.959 138.577 108.102C137.89 109.105 136.967 109.878 136.035 110.64C132.183 113.784 127.75 115.666 122.889 116.573C119.407 117.224 115.907 117.27 112.394 116.821C109.612 116.468 106.916 115.803 104.454 114.411C103.79 114.035 103.114 113.806 102.37 113.696C101.993 113.642 101.661 113.673 101.314 113.824C99.775 114.494 98.4603 115.499 97.24 116.625C95.7628 117.994 94.5065 119.547 93.3655 121.2C91.8516 123.389 90.5856 125.729 89.3108 128.061C88.0775 130.318 86.7407 132.504 85.133 134.517C84.8372 134.886 84.5677 135.275 84.3414 135.695C84.1851 135.983 84.0623 136.287 84.0017 136.614C83.9291 137.002 84.0616 137.328 84.2824 137.635C84.3545 137.736 84.4483 137.791 84.5533 137.687C84.8624 137.391 85.2295 137.147 85.4559 136.759C85.3698 136.703 85.3027 136.672 85.2492 136.624C85.0016 136.415 84.9447 136.217 85.0809 136.018C85.2268 135.802 85.4324 135.776 85.6579 135.873C85.8751 135.968 86.0957 136.058 86.3032 136.169C87.4531 136.771 88.5074 137.519 89.5419 138.298C91.3132 139.625 92.9139 141.159 94.4105 142.805ZM102.813 66.2996C103.023 66.0991 103.078 65.8791 103.18 65.6924C105.766 60.8807 109.799 58.2145 115.241 58.0259C120.416 57.844 124.486 60.0911 127.405 64.3748C128.192 65.5282 128.722 66.8052 129.121 68.1344C129.239 68.5256 129.246 68.5246 129.65 68.4768C129.724 68.4674 129.794 68.4545 129.867 68.4451C131.972 68.128 134.081 67.8144 136.186 67.4973C136.326 67.4755 136.477 67.4877 136.615 67.3674C136.547 67.0173 136.338 66.7127 136.216 66.3773C136.102 66.0686 135.973 65.7696 135.874 65.4589C135.781 65.1632 135.868 64.9547 136.089 64.8594C136.313 64.7636 136.527 64.8585 136.663 65.125C136.711 65.2214 136.744 65.3276 136.781 65.4294C137.455 67.3032 138.481 68.9663 139.799 70.4538C141.534 72.4165 143.512 74.0994 145.656 75.5917C147.276 76.7211 148.975 77.6985 150.861 78.3205C152.298 78.795 153.758 79.0142 155.271 78.7295C157.454 78.3156 158.989 76.5966 159.139 74.3806C159.233 72.9566 158.867 71.6389 158.24 70.3783C157.215 68.3207 155.711 66.6518 153.983 65.1694C151.093 62.6843 147.812 60.8686 144.25 59.5384C140.886 58.2814 137.395 57.5969 133.836 57.1891C133.688 57.1726 133.548 57.1551 133.411 57.2278C133.204 57.3371 133.026 57.2654 132.852 57.1456C132.221 56.7099 131.528 56.3845 130.823 56.0844C125.613 53.865 120.17 52.91 114.522 53.1249C111.971 53.2231 109.449 53.5817 106.96 54.161C104.291 54.783 101.713 55.6537 99.2421 56.8419C96.9688 57.9378 94.8339 59.2526 92.8951 60.8657C92.7383 60.9962 92.5299 61.0939 92.4643 61.3823C94.4822 61.4629 96.3788 61.8904 98.1734 62.7529C99.9637 63.612 101.494 64.816 102.813 66.2996ZM135.638 147.307C135.985 147.243 136.33 147.254 136.671 147.305C138.216 147.541 139.154 148.829 138.858 150.33C138.721 151.022 138.393 151.628 137.976 152.19C137.256 153.162 136.344 153.949 135.503 154.806C134.436 155.901 133.589 157.138 133.035 158.57C132.916 158.873 132.904 159.119 133.182 159.344C133.349 159.48 133.478 159.661 133.622 159.827C134.56 160.93 135.33 162.137 135.932 163.452C136.086 163.791 136.11 163.788 136.399 163.581C136.456 163.538 136.513 163.492 136.57 163.445C139.047 161.353 141.516 159.258 144.03 157.212C144.449 156.874 144.447 156.863 144.207 156.341C143.676 155.183 143.153 154.023 142.606 152.871C140.398 148.196 138.187 143.526 135.979 138.851C135.627 138.111 135.295 137.361 134.951 136.62C134.789 136.274 134.78 136.271 134.418 136.401C134.35 136.425 134.283 136.453 134.215 136.478C131.228 137.665 128.398 139.156 125.708 140.909C123.094 142.608 120.618 144.495 118.232 146.497C114.297 149.801 110.578 153.338 107.013 157.033C106.661 157.398 106.656 157.45 106.961 157.86C108.1 159.395 109.247 160.924 110.382 162.458C110.539 162.671 110.727 162.813 110.966 162.924C112.012 163.393 113.055 163.867 114.09 164.369C114.409 164.522 114.704 164.547 115.036 164.457C116.704 163.995 118.332 163.435 119.929 162.754C122.281 161.75 124.207 160.222 125.714 158.163C127.144 156.209 128.366 154.116 129.77 152.141C130.722 150.801 131.742 149.522 133.042 148.496C133.809 147.901 134.65 147.442 135.638 147.307ZM80.8577 77.0838C80.9153 77.3485 80.9998 77.8544 81.1299 78.3465C82.7144 84.2172 88.5609 87.8301 94.4975 86.5132C98.7927 85.5605 101.615 82.8996 103.03 78.7387C103.142 78.4089 103.125 78.127 102.977 77.8029C101.837 75.3065 101.455 72.6933 101.844 69.9734C101.892 69.6438 101.832 69.3911 101.65 69.1107C98.9081 64.9463 93.8034 63.0605 88.9748 64.4365C83.6095 65.9641 80.112 71.2949 80.8577 77.0838ZM129.911 97.3174C130.49 98.387 130.805 99.4628 130.995 100.578C131.039 100.825 131.17 100.863 131.382 100.797C132.671 100.391 133.939 99.9446 135.041 99.125C135.844 98.5252 136.493 97.807 136.809 96.8278C137.258 95.4373 136.739 94.0957 135.467 93.3714C135.072 93.146 134.651 92.975 134.209 92.8502C132.578 92.3967 130.906 92.3388 129.229 92.3052C126.445 92.2478 123.665 92.3714 120.882 92.511C118.045 92.6537 115.212 92.859 112.392 93.1652C108.284 93.6127 104.182 94.1343 100.1 94.7758C96.7558 95.3029 93.4054 95.8111 90.0569 96.3033C88.1639 96.5814 86.2678 96.8046 84.3734 97.0711C83.7962 97.1529 83.222 97.258 82.6567 97.4015C81.942 97.5798 81.282 97.8774 80.8264 98.5076C80.2104 99.3635 80.4129 100.359 81.3176 100.894C81.5524 101.033 81.806 101.135 82.0716 101.207C82.5825 101.347 83.1038 101.414 83.6333 101.453C85.2738 101.574 86.9067 101.452 88.5416 101.345C91.3733 101.159 94.2039 100.935 97.033 100.698C99.445 100.5 101.853 100.242 104.266 100.051C105.555 99.9494 106.841 99.7965 108.126 99.6673C110.645 99.4116 113.158 99.1408 115.676 98.8812C115.941 98.8551 116.089 98.7455 116.22 98.5117C116.802 97.4827 117.677 96.7987 118.789 96.4275C119.504 96.186 120.253 96.1532 121.003 96.1635C122.137 96.176 123.258 96.1191 124.358 95.8124C124.986 95.6373 125.625 95.4805 126.278 95.4047C127.276 95.2847 128.169 95.5095 128.917 96.1749C129.228 96.4505 129.522 96.4957 129.906 96.4149C131.1 96.1633 132.281 95.8661 133.467 95.58C133.88 95.4797 134.114 95.5562 134.196 95.8218C134.272 96.0763 134.106 96.2908 133.695 96.4066C133.258 96.5336 132.813 96.634 132.373 96.7377C131.573 96.9309 130.78 97.1153 129.911 97.3174ZM84.1482 106.794C83.8356 108.018 83.2926 109.105 82.7112 110.169C82.6123 110.351 82.5896 110.544 82.5839 110.745C82.5553 111.692 82.5267 112.638 82.4898 113.581C82.3218 117.78 82.1062 121.976 81.8353 126.172C81.5199 131.036 81.1769 135.899 80.6023 140.741C80.5863 140.893 80.4921 141.051 80.6285 141.223C81.6556 140.373 82.6281 139.468 83.606 138.573C83.8145 138.385 83.6797 138.256 83.5744 138.112C83.1272 137.515 83.0237 136.861 83.2205 136.15C83.3337 135.741 83.5106 135.367 83.7289 135.008C84.0321 134.512 84.3868 134.048 84.7415 133.585C85.6588 132.402 86.5158 131.18 87.2566 129.882C88.178 128.27 89.074 126.644 89.9827 125.025C91.1963 122.862 92.4922 120.756 94.0423 118.818C95.7486 116.682 97.6759 114.795 100.077 113.438C100.14 113.402 100.216 113.381 100.211 113.247C100.002 113.191 99.7849 113.124 99.5644 113.066C97.6743 112.566 95.8498 111.901 94.1104 111.008C92.8438 110.358 91.6329 109.617 90.5677 108.661C90.34 108.454 90.1163 108.309 89.7967 108.338C89.6521 108.349 89.5059 108.316 89.3623 108.303C88.0372 108.181 86.7279 107.966 85.4818 107.475C85.0251 107.297 84.6066 107.047 84.1482 106.794ZM102.786 106.69C105.795 106.32 108.557 105.832 111.317 105.368C112.537 105.164 113.753 104.925 114.962 104.668C116.848 104.272 118.731 103.85 120.614 103.435C122.229 103.078 123.833 102.671 125.435 102.249C125.805 102.15 125.825 102.089 125.592 101.775C124.839 100.768 123.887 100.046 122.67 99.6888C121.629 99.3805 120.559 99.2848 119.485 99.3318C118.732 99.3652 117.949 99.225 117.237 99.612C117.193 99.6373 117.132 99.6215 117.077 99.6285C115.356 99.8017 113.639 99.9744 111.919 100.151C110.49 100.299 109.06 100.467 107.631 100.606C104.554 100.91 101.471 101.198 98.3867 101.444C96.372 101.603 94.3609 101.79 92.3501 101.949C91.4444 102.022 90.5347 102.063 89.628 102.128C89.2841 102.153 88.9206 102.148 88.6031 102.256C87.9793 102.466 87.3401 102.587 86.6966 102.705C86.0492 102.824 85.4272 103.018 84.8391 103.322C84.547 103.474 84.2744 103.654 84.0495 103.9C83.6936 104.293 83.6401 104.738 83.8745 105.212C83.997 105.461 84.1806 105.662 84.3888 105.841C84.8228 106.211 85.3152 106.483 85.8457 106.683C86.9776 107.114 88.1593 107.318 89.3605 107.428C91.9267 107.663 94.4878 107.52 97.0433 107.303C99.037 107.134 101.031 106.97 102.786 106.69ZM106.25 160.961C106.322 160.849 106.271 160.788 106.232 160.73C105.896 160.257 105.548 159.789 105.222 159.306C104.416 158.131 103.523 157.043 102.406 156.137C99.6543 153.902 96.7064 151.981 93.4799 150.501C90.8195 149.284 88.0563 148.404 85.1466 148.011C82.3452 147.633 79.5612 147.698 76.8027 148.363C76.6306 148.404 76.4468 148.416 76.3133 148.575C76.439 148.725 76.6249 148.76 76.7882 148.834C80.1734 150.321 83.5012 151.914 86.7325 153.708C88.9276 154.926 91.1072 156.177 93.042 157.794C93.2191 157.945 93.4104 157.992 93.637 158.006C94.8702 158.088 96.0974 158.247 97.3165 158.465C100.171 158.979 102.939 159.807 105.665 160.795C105.859 160.865 106.051 160.978 106.25 160.961ZM67.3455 83.978C67.5087 85.436 68.0909 86.6866 69.0957 87.7253C70.9596 89.6517 73.2952 90.6736 75.8745 91.2266C76.073 91.2682 76.2136 91.2265 76.3607 91.0815C77.4709 89.9887 78.2317 88.7238 78.3797 87.1391C78.4548 86.3406 78.4747 85.5414 78.5028 84.745C78.5364 83.8376 78.5777 82.9291 78.8152 82.0428C78.9269 81.6223 79.3077 81.2698 79.2564 80.8386C79.2041 80.3996 78.9728 79.9796 78.8196 79.5536C78.801 79.5008 78.7868 79.4513 78.7721 79.398C78.6976 79.1551 78.6927 78.8402 78.5316 78.6913C78.3438 78.5181 78.0153 78.6628 77.7512 78.6335C77.6595 78.6255 77.5716 78.6171 77.4799 78.6091C76.0228 78.4724 74.6265 78.0716 73.234 77.6387C72.7328 77.4821 72.2306 77.3177 71.7178 77.1941C71.307 77.0968 70.9583 77.177 70.6798 77.4967C69.7336 78.5763 68.7839 79.6603 68.0566 80.9091C67.4667 81.9076 67.2192 82.9924 67.3455 83.978ZM114.016 58.9361C106.801 59.8765 101.712 66.484 102.648 73.696C103.578 80.8298 110.198 85.9212 117.356 84.9961C124.542 84.0713 129.608 77.4745 128.689 70.2722C127.822 63.4696 121.627 58.0595 114.016 58.9361ZM102.113 68.2272C102.251 68.1661 102.242 68.0608 102.283 67.9845C102.537 67.5024 102.415 67.1393 102.055 66.728C98.5645 62.758 92.9899 61.2361 87.9793 62.9154C81.1233 65.2138 77.3745 72.6159 79.7069 79.4912C81.3425 84.3141 84.7688 87.3221 89.7738 88.2465C94.7348 89.1648 98.9207 87.5438 102.244 83.7497C103.077 82.799 103.707 81.7125 104.213 80.5552C104.329 80.2918 104.354 80.0797 104.148 79.8576C104.015 79.7129 103.96 79.503 103.726 79.3674C102.664 82.284 100.818 84.5596 98.1004 86.0673C95.3612 87.5897 92.4394 87.9957 89.3857 87.3103C84.261 86.1606 80.4837 81.829 79.9613 76.5518C79.4488 71.3523 82.31 66.4106 87.0682 64.239C91.9622 62.0185 98.3382 63.1459 102.113 68.2272ZM65.2845 92.0551C65.427 92.029 65.5701 92.0067 65.7117 91.9728C66.4681 91.7812 66.7615 91.2703 66.5253 90.5354C66.4264 90.2247 66.293 89.9223 66.1339 89.6351C65.8235 89.0596 65.4908 88.4949 65.1582 87.9301C64.2211 86.3424 63.537 84.6356 62.8456 82.9336C62.5801 82.2774 62.2952 81.6237 61.8374 81.0671C60.7742 79.7875 59.373 79.8408 58.4286 81.2121C57.6905 82.2848 57.342 83.5048 57.146 84.7762C57.107 85.0257 57.1638 85.192 57.4416 85.2668C57.7602 85.3522 58.046 85.5206 58.3144 85.7071C58.876 86.0887 59.3477 86.5686 59.7846 87.0845C60.9972 88.5146 62.2098 89.9447 63.1993 91.5414C63.2988 91.7022 63.4171 91.8251 63.6089 91.8754C64.1635 92.0173 64.7107 92.1326 65.2845 92.0551ZM117.182 98.5936C118.586 98.4728 119.853 98.417 121.124 98.5184C123.626 98.7183 125.529 99.8745 126.816 102.033C127.122 102.55 127.396 103.082 127.632 103.632C127.943 104.369 128.247 105.107 128.569 105.839C128.737 106.224 128.953 106.582 129.251 106.883C129.785 107.418 130.291 107.302 130.523 106.59C130.687 106.08 130.694 105.555 130.674 105.025C130.606 103.385 130.382 101.765 130.039 100.164C129.863 99.3429 129.626 98.5372 129.179 97.8214C128.403 96.5719 127.524 95.9904 125.885 96.3386C125.566 96.407 125.249 96.4871 124.933 96.571C123.909 96.8323 122.879 97.0393 121.812 97.0222C121.247 97.0157 120.684 97.0248 120.124 97.0532C118.956 97.1121 118.004 97.5969 117.182 98.5936ZM56.6416 92.3817C56.6911 92.2137 56.5597 92.1122 56.4968 91.9901C56.244 91.5256 56.0212 91.0493 55.8281 90.5574C55.7102 90.253 55.8055 90.012 56.0459 89.9181C56.264 89.835 56.4962 89.9235 56.6077 90.209C57.0318 91.3023 57.6729 92.2732 58.2994 93.2539C58.4418 93.4723 58.5991 93.6533 58.7975 93.8171C59.7135 94.5635 60.6842 95.2437 61.6369 95.938C62.0327 96.2265 62.3254 96.2324 62.7175 95.9376C63.1924 95.5809 63.3738 95.0884 63.3584 94.5066C63.333 93.6619 63.023 92.905 62.59 92.2032C61.44 90.3391 60.0529 88.6553 58.5661 87.0553C58.3329 86.8051 58.0532 86.5925 57.7678 86.3964C56.8633 85.7708 55.6645 85.8337 54.9203 86.8283C54.5197 87.3647 54.2605 87.958 54.0975 88.5941C53.8108 89.7115 53.8035 90.8247 54.2199 91.919C54.3622 92.2912 54.3642 92.3068 54.7735 92.2385C55.3065 92.1505 55.8249 92.1945 56.3373 92.3458C56.432 92.377 56.5327 92.4548 56.6416 92.3817ZM136.05 109.432C135.987 109.428 135.97 109.418 135.955 109.424C135.838 109.471 135.719 109.521 135.603 109.576C131.904 111.304 128.016 112.445 124.017 113.218C121.08 113.783 118.118 114.123 115.131 114.293C112.272 114.454 109.419 114.441 106.565 114.231C106.437 114.224 106.308 114.17 106.139 114.266C106.265 114.329 106.342 114.374 106.422 114.411C107.428 114.843 108.469 115.178 109.536 115.416C115.05 116.646 120.527 116.516 125.953 114.934C129.489 113.905 132.712 112.253 135.562 109.904C135.73 109.764 135.916 109.65 136.05 109.432ZM77.0996 145.816C77.7457 146.211 78.4109 146.508 79.0056 146.933C79.1666 147.05 79.3364 147.052 79.5232 147.032C82.3571 146.771 85.1565 146.981 87.9177 147.66C93.9163 149.136 99.088 152.16 103.709 156.183C104.002 156.437 104.288 156.574 104.762 156.549C101.549 152.496 97.769 149.285 93.0236 147.31C87.8784 145.169 82.5523 144.786 77.0996 145.816ZM105.913 156.823C106.163 156.775 106.261 156.585 106.393 156.446C109.474 153.247 112.673 150.171 116.026 147.257C120.029 143.778 124.219 140.559 128.9 138.027C128.97 137.99 129.068 137.954 129.045 137.772C128.771 137.574 128.466 137.349 128.157 137.124C127.922 136.953 127.75 136.628 127.475 136.604C127.172 136.576 126.937 136.87 126.688 137.044C122.97 139.579 119.484 142.412 116.16 145.441C113.101 148.223 110.191 151.152 107.511 154.303C106.955 154.954 106.427 155.629 106.023 156.387C105.96 156.51 105.831 156.617 105.913 156.823ZM137.466 68.9267C137.256 68.2398 137.217 68.2171 136.578 68.3069C135.803 68.418 135.033 68.5286 134.259 68.6435C132.75 68.8724 131.242 69.1051 129.736 69.3296C129.515 69.3618 129.416 69.4456 129.447 69.6861C129.477 69.9267 129.558 70.0623 129.827 70.0081C129.915 69.9889 130.005 69.9853 130.099 69.9733C132.386 69.6683 134.67 69.3638 136.954 69.0554C137.128 69.0292 137.316 69.0523 137.466 68.9267ZM96.7009 148.183C96.6337 147.474 96.3201 146.934 95.9617 146.385C95.6103 146.659 95.3103 146.934 95.0144 147.271C95.6035 147.59 96.1541 147.886 96.7009 148.183ZM84.3048 86.9951C84.3436 87.2977 84.3745 87.5383 84.4122 87.8332C84.5936 87.6482 84.7373 87.5076 84.8328 87.3297C84.6785 87.172 84.5322 87.0764 84.3048 86.9951Z" fill="#070504"/>
<path d="M146.265 155.41C145.987 155.643 145.714 155.883 145.427 156.105C145.173 156.304 145.152 156.298 145.006 155.99C144.376 154.639 143.752 153.283 143.118 151.933C140.714 146.81 138.24 141.72 135.888 136.574C135.768 136.31 135.647 136.045 135.538 135.775C135.314 135.232 135.197 135.18 134.63 135.403C133.544 135.826 132.475 136.282 131.413 136.765C131.1 136.908 130.768 137.029 130.481 137.216C130.128 137.447 129.858 137.371 129.548 137.138C129.098 136.798 128.655 136.448 128.229 136.077C127.557 135.485 127.553 135.481 126.784 135.978C124.261 137.615 121.89 139.461 119.571 141.371C115.127 145.04 110.984 149.022 107.195 153.373C106.862 153.759 106.538 154.155 106.231 154.557C105.923 154.96 105.638 155.383 105.34 155.796C105.181 155.788 105.137 155.656 105.066 155.563C103.582 153.706 101.909 152.039 100.057 150.549C99.7975 150.337 99.6624 150.114 99.6196 149.78C99.3572 147.609 99.267 145.428 99.2709 143.243C99.2798 136.694 99.8949 130.199 100.868 123.728C100.891 123.567 100.925 123.405 100.928 123.239C100.934 123.01 100.812 122.856 100.582 122.818C100.356 122.78 100.187 122.873 100.108 123.092C100.053 123.245 100.026 123.406 99.9874 123.565C99.9381 123.611 99.9179 123.669 99.9384 123.737C99.9492 123.759 99.9473 123.775 99.926 123.794C99.7313 123.905 99.7077 124.121 99.6403 124.304C99.4253 124.903 99.2389 125.511 98.9991 126.101C98.2045 128.057 97.5872 130.072 97.0389 132.103C96.1274 135.485 95.3504 138.902 94.6303 142.331C94.5935 142.505 94.5907 142.699 94.4027 142.802C92.906 141.155 91.3054 139.621 89.5243 138.28C88.4898 137.501 87.436 136.757 86.2856 136.151C86.0781 136.039 85.8575 135.949 85.6403 135.855C85.4149 135.758 85.2092 135.784 85.0633 136C84.9271 136.199 84.984 136.397 85.2316 136.605C85.2852 136.654 85.3522 136.685 85.4383 136.741C85.2119 137.129 84.8444 137.369 84.5357 137.669C84.4302 137.769 84.3364 137.714 84.2648 137.617C84.044 137.31 83.9115 136.984 83.9841 136.596C84.0447 136.269 84.168 135.969 84.3238 135.677C84.5501 135.257 84.8201 134.872 85.1155 134.498C86.7226 132.482 88.06 130.299 89.2932 128.043C90.568 125.711 91.8345 123.375 93.3479 121.182C94.4889 119.529 95.7452 117.976 97.2224 116.607C98.4422 115.477 99.7574 114.476 101.296 113.805C101.644 113.654 101.975 113.624 102.353 113.678C103.097 113.788 103.769 114.017 104.436 114.393C106.898 115.785 109.594 116.449 112.377 116.803C115.889 117.252 119.389 117.202 122.871 116.554C127.733 115.648 132.165 113.766 136.018 110.622C136.95 109.864 137.873 109.091 138.56 108.084C138.656 107.941 138.818 107.885 138.957 107.8C140.841 106.679 142.601 105.393 144.189 103.876C144.421 103.653 144.673 103.498 144.995 103.453C145.848 103.553 146.595 103.911 147.279 104.411C148.723 105.46 150.039 106.656 151.316 107.905C153.828 110.367 156.133 112.994 158.008 115.992C159.332 118.106 160.545 120.278 161.666 122.504C163.494 126.123 165.122 129.839 166.757 133.55C166.918 133.912 167.151 134.252 167.169 134.668C163.405 135.458 159.853 136.856 156.362 138.423C155.034 139.019 153.728 139.66 152.465 140.386C152.34 140.457 152.206 140.526 152.1 140.622C151.948 140.76 151.937 140.947 152.027 141.124C152.121 141.31 152.296 141.382 152.486 141.326C152.658 141.276 152.819 141.181 152.977 141.093C153.52 140.803 154.042 140.48 154.675 140.217C154.867 141.096 155.052 141.928 155.233 142.757C155.272 142.937 155.217 143.027 155.016 143.029C154.07 143.036 153.121 143.047 152.195 142.807C151.893 142.727 151.604 142.626 151.323 142.493C150.691 142.183 150.29 141.698 150.183 140.99C150.159 140.827 150.126 140.666 150.121 140.501C150.019 138.041 149.366 135.687 148.675 133.346C147.253 128.528 145.616 123.78 144.084 118.995C143.609 117.506 143.118 116.019 142.753 114.492C142.728 114.385 142.695 114.282 142.661 114.176C142.587 113.961 142.43 113.851 142.201 113.872C141.982 113.893 141.848 114.079 141.851 114.343C141.852 114.45 141.882 114.56 141.896 114.669C141.842 114.676 141.788 114.687 141.734 114.693C141.184 114.776 141.126 114.878 141.293 115.409C141.394 115.739 141.484 116.07 141.582 116.401C141.947 117.679 142.05 119.007 142.284 120.31C142.712 122.669 142.956 125.059 143.295 127.434C143.9 131.663 144.529 135.889 144.866 140.153C144.972 141.472 145.227 142.781 145.267 144.113C145.296 145.016 145.447 145.916 145.512 146.822C145.63 148.487 145.773 150.153 145.926 151.814C146.062 153.023 146.109 154.22 146.265 155.41Z" fill="#CF9356"/>
<path d="M66.5462 160.568C66.3018 159.369 66.2519 158.149 66.2219 156.93C66.0799 151.482 66.5367 146.059 66.9935 140.637C67.5614 133.926 68.4811 127.254 69.4013 120.585C69.7312 118.204 70.0135 115.821 70.2512 113.428C70.2808 113.136 70.2796 112.88 70.6941 112.914C70.8892 112.928 71.0314 112.776 71.0482 112.569C71.0664 112.341 70.963 112.181 70.7411 112.111C70.6386 112.081 70.5289 112.055 70.424 112.037C68.937 111.79 67.5481 111.262 66.201 110.598C63.5655 109.299 61.0243 107.842 58.7259 106.003C56.9548 104.586 55.4721 102.926 54.5374 100.833C53.7923 99.1734 53.3032 97.4494 53.3353 95.6074C53.3442 95.1843 53.4016 94.7707 53.5402 94.3743C53.8807 93.3999 54.6459 92.939 55.6707 93.0877C56.0727 93.1466 56.4429 93.2964 56.7948 93.4879C57.083 93.6442 57.3683 93.8088 57.6266 94.0084C58.8922 94.99 60.1713 95.9541 61.4674 96.8962C61.8501 97.1746 62.1995 97.5005 62.4991 97.8684C62.7329 98.1539 62.9226 98.4649 63.0009 98.8295C63.1481 99.5166 62.8061 100.018 62.1106 100.131C61.5931 100.217 61.0969 100.099 60.6083 99.9486C59.7534 99.6795 58.9598 99.2724 58.1821 98.8357C57.974 98.7203 57.7757 98.588 57.5652 98.4848C57.2702 98.3373 57.0259 98.4001 56.9053 98.6285C56.7977 98.8356 56.8615 99.0562 57.1352 99.2222C58.2898 99.9222 59.466 100.576 60.7932 100.899C61.2734 101.015 61.7579 101.071 62.253 100.996C62.5469 100.95 62.8544 100.887 63.0571 100.684C63.3962 100.345 63.7156 100.406 64.0893 100.583C64.5471 100.801 65.0246 100.988 65.4921 101.188C67.4259 102.029 69.091 103.235 70.5161 104.784C70.6626 104.943 70.8174 105.105 70.9881 105.236C71.1637 105.376 71.3646 105.374 71.5325 105.206C71.6931 105.044 71.7158 104.851 71.5813 104.664C71.4989 104.544 71.3875 104.444 71.2911 104.338C69.4106 102.22 67.0765 100.78 64.4455 99.7921C64.3255 99.7483 64.2084 99.6963 64.0884 99.6525C63.9558 99.6024 63.8706 99.5226 63.8905 99.3702C63.9897 98.4819 63.5697 97.7903 63.0262 97.1501C62.9702 97.0823 62.8953 97.0209 62.894 96.9185C64.3432 95.6088 64.3701 95.5107 63.9646 92.9004C64.1406 92.8266 64.3169 92.9105 64.4922 92.9236C65.1173 92.9697 65.7348 92.926 66.3139 92.6743C67.2671 92.2643 67.671 91.3843 67.3899 90.3909C67.254 89.9153 67.0653 89.4584 66.8029 89.0424C65.5111 86.9638 64.479 84.7572 63.5918 82.4808C63.2108 81.5082 62.745 80.5819 61.8943 79.9139C61.7012 79.7612 61.771 79.5984 61.8278 79.4255C62.0701 78.7003 62.3075 77.9678 62.6796 77.301C63.6871 75.4996 64.8591 73.8113 66.2489 72.2843C66.394 72.1237 66.5566 71.9767 66.7187 71.8258C67.9548 70.6695 69.4079 70.2822 71.0563 70.6192C71.5544 70.721 72.0478 70.8471 72.534 71.0096C74.3687 71.6303 76.1108 72.4523 77.8413 73.3072C78.1616 73.4673 78.2834 73.6489 78.2409 74.0251C78.1123 75.1143 78.1414 76.2031 78.3044 77.2905C78.3267 77.4336 78.3645 77.5746 78.3029 77.7403C77.8542 77.8096 77.4066 77.7329 76.9605 77.6678C75.7668 77.4934 74.6119 77.1602 73.4685 76.794C72.9299 76.6224 72.3951 76.4504 71.8396 76.3323C71.1137 76.1768 70.5068 76.365 70.0136 76.9173C69.0789 77.9639 68.1665 79.0313 67.4332 80.2335C66.0186 82.5524 66.166 84.8723 67.5535 87.1438C68.3173 88.3947 69.4177 89.3186 70.6526 90.0912C72.325 91.1389 74.1544 91.7801 76.0805 92.1604C76.3232 92.2081 76.4986 92.1304 76.6714 91.9703C78.2293 90.5243 79.2202 88.8079 79.2882 86.63C79.3203 85.5571 79.3723 84.4855 79.4398 83.412C79.467 82.9471 79.533 82.4772 79.7263 82.0462C79.9146 82.0693 79.9446 82.2114 80.0056 82.318C80.7891 83.6926 81.7866 84.89 82.9801 85.9242C83.2194 86.1302 83.3419 86.3472 83.37 86.6591C83.4354 87.3843 83.5666 88.1011 83.5461 88.8334C83.5367 89.0988 83.487 89.326 83.3707 89.5579C82.302 91.651 81.7557 93.8823 81.7251 96.229C81.72 96.6201 81.6227 96.8456 81.2506 97.0194C80.6444 97.3061 80.1883 97.7787 79.8748 98.3789C79.2834 99.5196 79.6027 100.78 80.6662 101.508C81.2497 101.906 81.9112 102.113 82.5981 102.211C83.1204 102.286 83.6479 102.309 84.1741 102.352C84.2736 102.359 84.3735 102.37 84.4818 102.383C84.4267 102.599 84.2637 102.62 84.1509 102.694C83.8598 102.885 83.5868 103.094 83.3605 103.359C82.778 104.045 82.6616 104.861 83.1162 105.639C83.3328 106.005 83.3513 106.334 83.2511 106.722C83.0205 107.631 82.6019 108.457 82.1837 109.288C82.0453 109.562 81.8904 109.83 81.7399 110.102C81.6694 110.229 81.5796 110.359 81.6067 110.51C81.8084 111.56 81.6433 112.611 81.6043 113.661C81.3914 119.171 81.0833 124.676 80.6835 130.174C80.3838 134.33 80.0284 138.482 79.4734 142.615C79.4493 142.796 79.4173 142.977 79.4169 143.159C79.4143 143.415 79.5706 143.589 79.7948 143.615C80.0152 143.642 80.2545 143.509 80.245 143.25C80.2231 142.617 80.6584 142.321 81.0606 141.982C82.7433 140.555 84.3448 139.049 85.9491 137.534C86.3502 137.155 86.3536 137.15 86.8179 137.45C87.0158 137.578 87.2369 137.672 87.3975 137.849C87.4065 137.919 87.4121 137.993 87.4326 138.061C87.7407 139.142 88.1534 140.178 88.6384 141.192C88.9407 141.828 89.2431 142.463 89.4674 143.137C89.654 143.7 89.6673 144.235 89.268 144.72C89.1757 144.831 89.0926 144.952 89.0969 145.109C88.0386 144.945 86.9879 144.717 85.9234 144.597C82.8266 144.252 79.7491 144.366 76.6911 144.971C76.4065 145.027 76.1238 145.099 75.8412 145.171C75.4625 145.263 75.2922 145.442 75.2825 145.735C75.2723 146.056 75.4915 146.166 75.7475 146.256C76.3634 146.476 76.9587 146.751 77.5419 147.055C77.6051 147.086 77.6789 147.108 77.7098 147.227C77.5016 147.356 77.2512 147.372 77.0141 147.43C76.3412 147.595 75.6721 147.76 74.9991 147.925C74.7426 147.986 74.581 148.14 74.5313 148.399C74.4759 148.674 74.587 148.834 74.9631 148.998C75.8615 149.392 76.77 149.773 77.6656 150.175C79.1558 150.847 80.6534 151.515 82.0969 152.285C82.0421 152.442 81.9367 152.573 81.8211 152.687C81.1245 153.376 80.442 154.082 79.7225 154.746C78.1118 156.242 76.5104 157.749 74.8125 159.15C73.4893 160.242 72.0298 161.072 70.3976 161.569C69.3083 161.902 68.2412 161.854 67.3167 161.041C67.092 160.857 66.8792 160.612 66.5462 160.568Z" fill="#6E4F93"/>
<path d="M97.6895 111.546C95.6166 110.913 93.7158 109.93 91.9608 108.668C91.9175 108.638 91.8838 108.591 91.8507 108.548C91.8415 108.537 91.8501 108.512 91.8479 108.434C92.288 108.421 92.7305 108.396 93.172 108.394C94.4486 108.384 95.7187 108.293 96.9872 108.189C101.199 107.851 105.385 107.271 109.55 106.564C112.707 106.029 115.85 105.409 118.979 104.713C121.307 104.193 123.628 103.655 125.924 103.014C126.312 102.905 126.316 102.905 126.506 103.279C126.857 103.959 127.127 104.674 127.415 105.383C127.621 105.889 127.843 106.389 128.139 106.848C128.376 107.22 128.655 107.551 129.026 107.799C129.772 108.299 130.629 108.122 131.107 107.359C131.418 106.865 131.501 106.31 131.53 105.739C131.566 104.973 131.488 104.21 131.426 103.449C131.395 103.051 131.332 102.652 131.285 102.256C131.223 101.743 131.222 101.736 131.732 101.588C132.31 101.419 132.877 101.228 133.435 100.999C134.836 100.421 136.101 99.6433 136.988 98.3741C137.808 97.2041 138.111 95.9348 137.598 94.5491C137.26 93.634 136.595 93.0014 135.759 92.5406C134.651 91.9293 133.43 91.7229 132.195 91.5972C130.272 91.3979 128.345 91.4082 126.413 91.439C124.082 91.4733 121.754 91.5902 119.432 91.7182C118.105 91.7936 116.779 91.8846 115.457 92.0027C110.013 92.4795 104.598 93.1931 99.1993 94.0269C96.9872 94.3695 94.7673 94.6816 92.5567 95.0359C89.9678 95.4544 87.368 95.7875 84.7702 96.1362C84.1925 96.2141 83.6149 96.2921 83.0486 96.4278C82.6388 96.5237 82.5984 96.4855 82.6127 96.0735C82.646 95.0714 82.7594 94.0787 82.997 93.1017C83.3851 91.5138 83.9948 90.0237 84.9092 88.6642C84.9686 88.5738 85.0319 88.4828 85.0956 88.3958C85.5808 87.7499 85.5886 87.7489 86.334 88.0872C92.1921 90.7442 99.0211 89.1276 103.062 84.1255C103.691 83.3429 104.226 82.4974 104.674 81.5998C104.762 81.4229 104.811 81.2194 104.984 81.0908C105.196 81.1464 105.292 81.3393 105.424 81.48C108.263 84.4569 111.744 85.9828 115.853 85.9492C123.359 85.8945 129.493 79.8077 129.656 72.3051C129.664 71.9412 129.657 71.5754 129.638 71.2149C129.625 70.984 129.709 70.8745 129.936 70.8612C130.061 70.8531 130.188 70.8289 130.317 70.8125C132.484 70.5229 134.648 70.2338 136.815 69.9442C137.013 69.9188 137.213 69.909 137.412 69.8914C137.551 70.268 137.911 70.4586 138.152 70.7431C139.219 71.9869 140.33 73.1814 141.502 74.321C142.412 75.2062 143.301 76.1137 144.229 76.9808C144.865 77.5738 145.501 78.1706 146.148 78.7542C146.527 79.0961 146.911 79.4453 146.759 80.0484C146.744 80.1135 146.774 80.1925 146.783 80.2623C146.87 80.9729 147.155 81.6266 147.405 82.2886C147.815 83.3602 148.091 84.4686 148.332 85.5814C148.535 86.5216 148.537 87.4877 148.515 88.4529C148.47 90.4148 148.107 92.319 147.497 94.1759C146.841 96.165 145.685 97.8867 144.486 99.5824C144.212 99.9685 143.855 100.286 143.567 100.659C142.965 101.438 142.283 102.144 141.559 102.805C139.264 104.902 136.708 106.625 133.913 107.989C132.328 108.764 130.698 109.431 129.009 109.947C127.745 110.333 126.482 110.724 125.186 111.016C124.761 111.114 124.327 111.174 123.912 111.294C123.144 111.515 122.355 111.663 121.572 111.771C119.592 112.049 117.615 112.349 115.613 112.456C114.963 112.492 114.308 112.521 113.658 112.553C112.592 112.607 111.522 112.539 110.452 112.561C109.217 112.585 107.985 112.515 106.758 112.415C103.825 112.18 100.899 111.88 97.9843 111.477C97.8678 111.46 97.7659 111.434 97.6895 111.546Z" fill="#6E4F93"/>
<path d="M103.719 172.289C105.795 172.788 107.875 173.291 109.95 173.79C110.072 173.822 110.196 173.861 110.321 173.881C110.605 173.919 110.818 173.789 110.862 173.551C110.908 173.293 110.772 173.129 110.546 173.051C110.273 172.956 109.992 172.89 109.714 172.807C109.697 172.521 109.477 172.47 109.261 172.415C108.943 172.334 108.62 172.277 108.311 172.17C106.541 171.561 104.78 170.931 103.041 170.227C101.976 169.795 100.957 169.263 100.094 168.494C99.2792 167.771 98.4714 167.038 97.6023 166.38C97.4972 166.299 97.3321 166.241 97.3847 166.006C97.7184 165.963 98.0475 166.161 98.3845 166.083L98.3971 166.089C98.4472 166.11 98.5011 166.131 98.5512 166.152C98.6036 166.161 98.6628 166.161 98.709 166.183C100.642 166.957 102.661 167.388 104.703 167.75C106.963 168.15 109.169 168.739 111.246 169.743C111.326 169.784 111.409 169.821 111.499 169.845C111.728 169.906 111.893 169.806 111.99 169.609C112.08 169.423 112.037 169.24 111.872 169.123C111.695 169 111.494 168.911 111.303 168.805C111.279 168.56 111.128 168.421 110.911 168.331C110.644 168.215 110.376 168.1 110.119 167.967C108.271 167.028 106.384 166.182 104.426 165.494C103.344 165.116 102.256 164.75 101.184 164.355C99.6609 163.793 98.09 163.415 96.5061 163.089C94.246 162.626 91.9749 162.23 89.7549 161.588C88.8171 161.318 87.8676 161.049 86.8876 160.942C86.8662 160.467 87.1467 160.163 87.488 159.903C88.1091 159.425 88.8372 159.197 89.5962 159.057C91.4797 158.705 93.3671 158.814 95.251 159.05C99.0309 159.524 102.652 160.602 106.206 161.933C108.609 162.836 110.955 163.872 113.28 164.963C113.443 165.04 113.647 165.093 113.751 165.226C114.022 165.554 114.341 165.525 114.69 165.445C116.881 164.939 118.982 164.193 121.013 163.23C123.024 162.279 124.699 160.912 126.068 159.159C126.898 158.095 127.637 156.97 128.372 155.843C129.403 154.255 130.421 152.658 131.621 151.191C132.269 150.398 132.958 149.651 133.792 149.047C134.434 148.582 135.127 148.233 135.935 148.165C136.305 148.133 136.662 148.174 137.007 148.312C137.767 148.616 138.15 149.289 138.024 150.098C137.914 150.806 137.534 151.383 137.095 151.925C136.581 152.563 135.992 153.135 135.398 153.7C134.023 155.008 132.904 156.493 132.223 158.284C131.99 158.897 131.802 159.525 131.671 160.169C131.649 160.274 131.624 160.384 131.626 160.49C131.633 160.698 131.756 160.828 131.951 160.874C132.15 160.92 132.306 160.841 132.409 160.666C132.514 160.495 132.473 160.271 132.607 160.116C132.694 160.113 132.748 160.165 132.794 160.222C133.867 161.453 134.761 162.794 135.329 164.334C135.582 165.02 135.714 165.736 135.81 166.458C135.833 166.64 135.848 166.819 135.891 166.995C135.964 167.294 136.139 167.429 136.384 167.398C136.632 167.366 136.772 167.194 136.732 166.88C136.662 166.301 136.584 165.723 136.46 165.156C136.387 164.838 136.478 164.656 136.717 164.46C141.094 160.787 145.465 157.104 149.982 153.602C151.751 152.232 153.538 150.879 155.354 149.573C156.416 148.81 157.486 148.054 158.596 147.355C158.702 147.287 158.815 147.221 158.907 147.134C159.083 146.97 159.113 146.71 158.973 146.546C158.829 146.375 158.633 146.317 158.434 146.434C158.105 146.63 157.793 146.847 157.468 147.05C157.304 147.154 157.156 147.292 156.975 147.327C156.855 147.251 156.855 147.157 156.843 147.067C156.611 144.853 156.113 142.692 155.619 140.527C155.608 140.474 155.613 140.418 155.61 140.363C156.932 140.099 158.287 140.146 159.619 139.952C160.734 139.789 161.86 139.676 162.975 139.514C163.699 139.409 164.424 139.47 165.148 139.484C165.492 139.491 165.706 139.653 165.847 139.982C166.412 141.286 166.788 142.65 167.042 144.045C167.188 144.846 167.253 145.659 167.279 146.483C167.307 147.411 167.343 148.333 167.26 149.255C167.166 150.308 166.947 151.342 166.371 152.259C165.709 153.311 164.91 154.245 163.991 155.081C162.317 156.601 160.513 157.948 158.654 159.223C155.637 161.29 152.592 163.321 149.501 165.271C148.042 166.192 146.583 167.12 145.119 168.033C143.252 169.195 141.372 170.34 139.45 171.41C138.092 172.168 136.648 172.72 135.13 173.033C134.001 173.268 132.925 173.611 131.872 174.077C130.383 174.737 129.06 175.68 127.7 176.548C126.257 177.471 124.765 178.297 123.197 178.983C121.696 179.641 120.139 180.116 118.511 180.364C117.741 180.483 116.968 180.542 116.2 180.645C116.037 180.666 115.875 180.69 115.712 180.684C114.935 180.649 114.153 180.702 113.378 180.596C113.245 180.578 113.122 180.601 113.039 180.722C110.818 180.38 108.557 178.836 108.228 177.434C108.339 177.317 108.468 177.396 108.581 177.421C109.71 177.639 110.853 177.701 111.998 177.771C112.09 177.776 112.181 177.784 112.271 177.776C112.517 177.76 112.696 177.647 112.714 177.384C112.732 177.125 112.585 176.967 112.333 176.936C112.028 176.896 111.719 176.884 111.411 176.853C111.123 176.823 110.827 176.849 110.547 176.755C110.513 176.585 110.373 176.536 110.236 176.483C109.666 176.252 109.095 176.014 108.525 175.783C107.851 175.511 107.188 175.225 106.586 174.809C105.647 174.156 104.823 173.359 103.924 172.654C103.82 172.552 103.735 172.445 103.719 172.289Z" fill="#6E4F93"/>
<path d="M102.812 66.2966C101.498 64.8125 99.9668 63.6046 98.1727 62.746C96.3786 61.8873 94.4775 61.4565 92.4636 61.3754C92.5292 61.087 92.7414 60.9888 92.8943 60.8587C94.8366 59.2413 96.9714 57.9265 99.2413 56.835C101.712 55.6468 104.29 54.7761 106.959 54.154C109.449 53.5747 111.97 53.2161 114.521 53.118C120.169 52.903 125.613 53.862 130.823 56.0774C131.528 56.3775 132.22 56.7029 132.852 57.1386C133.025 57.2584 133.204 57.3302 133.41 57.2209C133.547 57.1481 133.687 57.1657 133.835 57.1822C137.39 57.5904 140.881 58.275 144.249 59.5315C147.811 60.8616 151.093 62.6813 153.982 65.1625C155.707 66.6454 157.214 68.3138 158.239 70.3714C158.865 71.6281 159.232 72.9497 159.138 74.3736C158.992 76.5853 157.454 78.3087 155.27 78.7226C153.761 79.0067 152.301 78.7876 150.86 78.3136C148.974 77.6915 147.271 76.7108 145.655 75.5847C143.512 74.0925 141.533 72.4096 139.799 70.4468C138.484 68.9588 137.454 67.2962 136.78 65.4224C136.744 65.3206 136.71 65.2145 136.663 65.1181C136.526 64.8516 136.313 64.7567 136.088 64.8525C135.868 64.9478 135.776 65.1567 135.873 65.4519C135.972 65.7626 136.106 66.065 136.216 66.3704C136.341 66.7053 136.55 67.0098 136.615 67.3605C136.477 67.4846 136.325 67.4725 136.186 67.4904C134.081 67.8074 131.971 68.1211 129.867 68.4382C129.793 68.4476 129.723 68.4604 129.65 68.4699C129.246 68.5177 129.242 68.5182 129.121 68.1275C128.721 66.7943 128.191 65.5174 127.404 64.3679C124.481 60.0846 120.412 57.8414 115.24 58.019C109.798 58.2076 105.766 60.8776 103.18 65.6855C103.074 65.8804 103.024 66.0999 102.812 66.2966Z" fill="#6E4F93"/>
<path d="M135.64 147.308C134.655 147.442 133.815 147.901 133.044 148.505C131.744 149.531 130.725 150.809 129.772 152.15C128.373 154.124 127.146 156.218 125.717 158.172C124.21 160.234 122.284 161.763 119.931 162.762C118.338 163.44 116.706 164 115.038 164.466C114.707 164.56 114.412 164.535 114.092 164.378C113.062 163.879 112.015 163.402 110.969 162.933C110.726 162.826 110.542 162.68 110.384 162.467C109.249 160.929 108.102 159.4 106.963 157.869C106.658 157.459 106.664 157.407 107.015 157.042C110.584 153.347 114.299 149.806 118.235 146.506C120.621 144.504 123.096 142.617 125.71 140.918C128.404 139.164 131.234 137.674 134.218 136.487C134.285 136.459 134.353 136.434 134.421 136.41C134.783 136.28 134.794 136.279 134.954 136.629C135.298 137.374 135.634 138.12 135.981 138.86C138.189 143.535 140.405 148.204 142.609 152.88C143.151 154.033 143.678 155.192 144.209 156.35C144.45 156.872 144.451 156.883 144.033 157.221C141.518 159.267 139.05 161.362 136.573 163.454C136.516 163.501 136.463 163.547 136.401 163.59C136.112 163.797 136.089 163.8 135.935 163.461C135.332 162.146 134.562 160.935 133.625 159.836C133.481 159.669 133.351 159.489 133.184 159.353C132.906 159.124 132.919 158.882 133.037 158.579C133.592 157.147 134.439 155.91 135.505 154.815C136.342 153.955 137.259 153.171 137.978 152.199C138.395 151.637 138.724 151.031 138.86 150.339C139.153 148.838 138.214 147.546 136.674 147.314C136.331 147.255 135.983 147.245 135.64 147.308Z" fill="#3F713F"/>
<path d="M80.8584 77.0851C80.1132 71.3001 83.6146 65.9687 88.976 64.4416C93.8047 63.0656 98.9098 64.9553 101.652 69.1159C101.833 69.3924 101.893 69.6489 101.845 69.9785C101.456 72.6985 101.838 75.3117 102.978 77.8081C103.127 78.1361 103.147 78.4175 103.031 78.7439C101.616 82.9047 98.794 85.5657 94.4988 86.5184C88.5622 87.8352 82.7156 84.2224 81.1312 78.3516C80.9967 77.8562 80.916 77.3498 80.8584 77.0851Z" fill="#A2EAF0"/>
<path d="M113.053 180.713C113.136 180.592 113.255 180.569 113.392 180.587C114.167 180.693 114.949 180.64 115.726 180.674C115.889 180.681 116.051 180.656 116.214 180.635C116.982 180.533 117.755 180.473 118.525 180.355C120.153 180.107 121.71 179.635 123.211 178.974C124.779 178.288 126.271 177.461 127.714 176.539C129.074 175.671 130.397 174.728 131.886 174.068C132.935 173.602 134.014 173.255 135.144 173.023C136.662 172.71 138.106 172.159 139.464 171.401C141.385 170.33 143.262 169.187 145.133 168.024C146.597 167.111 148.056 166.186 149.515 165.262C152.609 163.307 155.651 161.281 158.667 159.214C160.527 157.939 162.33 156.588 164.005 155.071C164.928 154.235 165.727 153.301 166.385 152.25C166.961 151.332 167.18 150.299 167.274 149.245C167.357 148.327 167.321 147.401 167.293 146.474C167.267 145.653 167.202 144.837 167.056 144.036C166.803 142.644 166.427 141.28 165.861 139.973C165.72 139.647 165.506 139.482 165.162 139.474C164.438 139.461 163.713 139.4 162.989 139.505C161.874 139.667 160.748 139.78 159.633 139.942C158.301 140.137 156.946 140.089 155.624 140.354C155.478 139.8 155.477 139.797 155.957 139.569C158.878 138.205 161.863 137.002 164.958 136.097C165.866 135.831 166.783 135.595 167.721 135.471C167.993 135.436 168.124 135.478 168.237 135.771C169.074 137.991 169.685 140.271 170.202 142.579C170.639 144.515 171.014 146.459 171.267 148.43C171.527 150.424 171.049 152.209 169.916 153.856C168.631 155.713 167.041 157.281 165.372 158.777C163.281 160.65 161.053 162.352 158.764 163.97C154.851 166.735 150.819 169.307 146.577 171.539C143.347 173.234 139.986 174.615 136.512 175.727C136.201 175.826 135.892 175.933 135.577 176.036C135.418 176.088 135.332 176.06 135.246 175.881C135.044 175.446 134.842 175.405 134.453 175.723C133.549 176.458 132.664 177.214 131.76 177.949C130.471 179.002 129.073 179.875 127.582 180.618C125.066 181.879 122.421 182.321 119.632 181.948C117.522 181.667 115.431 181.264 113.347 180.825C113.25 180.802 113.135 180.797 113.053 180.713Z" fill="#5A3A83"/>
<path d="M129.912 97.3186C130.781 97.1165 131.578 96.9316 132.37 96.7433C132.814 96.6391 133.255 96.5353 133.692 96.4122C134.103 96.2925 134.273 96.0775 134.193 95.8274C134.112 95.5617 133.877 95.4853 133.464 95.5856C132.278 95.8717 131.098 96.1689 129.903 96.4205C129.515 96.5018 129.222 96.4605 128.914 96.1805C128.166 95.5112 127.274 95.2903 126.276 95.4103C125.619 95.4905 124.985 95.6468 124.356 95.818C123.255 96.1208 122.135 96.1816 121.001 96.169C120.254 96.1583 119.501 96.1916 118.787 96.4331C117.675 96.8043 116.801 97.4922 116.218 98.5173C116.086 98.7472 115.939 98.8607 115.674 98.8868C113.155 99.1425 110.642 99.4133 108.123 99.6729C106.838 99.8021 105.552 99.955 104.264 100.057C101.851 100.252 99.4426 100.505 97.0306 100.704C94.2015 100.94 91.3704 101.161 88.5392 101.35C86.9082 101.457 85.2714 101.58 83.6309 101.459C83.1053 101.419 82.5801 101.353 82.0692 101.213C81.8036 101.141 81.55 101.039 81.3152 100.9C80.4105 100.365 80.208 99.3691 80.824 98.5132C81.2796 97.883 81.9357 97.5859 82.6543 97.4071C83.2196 97.2636 83.7938 97.1585 84.371 97.0767C86.2654 96.8102 88.1654 96.5865 90.0545 96.3089C93.403 95.8167 96.7534 95.3085 100.097 94.7814C104.18 94.1361 108.282 93.6182 112.39 93.1708C115.21 92.8646 118.047 92.6588 120.88 92.5166C123.659 92.3775 126.443 92.2534 129.227 92.3108C130.899 92.3449 132.575 92.4023 134.207 92.8558C134.648 92.9767 135.069 93.1516 135.465 93.377C136.737 94.1013 137.256 95.4429 136.807 96.8334C136.491 97.8126 135.846 98.5342 135.039 99.1306C133.941 99.9497 132.669 100.397 131.38 100.802C131.168 100.869 131.032 100.831 130.993 100.584C130.806 99.464 130.487 98.3887 129.912 97.3186Z" fill="#5A3A83"/>
<path d="M84.1492 106.799C84.6075 107.052 85.0261 107.302 85.4833 107.484C86.7299 107.979 88.0387 108.189 89.3638 108.312C89.5074 108.325 89.6536 108.357 89.7982 108.347C90.1183 108.321 90.3381 108.467 90.5692 108.67C91.6343 109.626 92.8448 110.362 94.1119 111.016C95.8513 111.909 97.6758 112.575 99.5659 113.074C99.7864 113.133 100.003 113.195 100.212 113.255C100.218 113.389 100.138 113.411 100.079 113.446C97.6769 114.799 95.7496 116.687 94.0438 118.826C92.4942 120.768 91.1983 122.874 89.9842 125.033C89.0755 126.653 88.1794 128.278 87.2581 129.891C86.5173 131.189 85.6603 132.411 84.743 133.593C84.3878 134.053 84.033 134.516 83.7304 135.016C83.5121 135.376 83.3313 135.75 83.222 136.158C83.0252 136.87 83.1291 137.527 83.5759 138.12C83.6851 138.264 83.8155 138.39 83.6075 138.582C82.6296 139.476 81.6571 140.382 80.63 141.231C80.4975 141.059 80.5878 140.901 80.6038 140.749C81.1784 135.907 81.5214 131.044 81.8368 126.18C82.1082 121.988 82.3238 117.792 82.4913 113.59C82.5282 112.646 82.5607 111.7 82.5854 110.754C82.5911 110.552 82.6138 110.36 82.7127 110.177C83.2936 109.109 83.8327 108.022 84.1492 106.799Z" fill="#FFEE00"/>
<path d="M102.786 106.695C101.031 106.971 99.0332 107.141 97.0395 107.309C94.4839 107.526 91.9229 107.669 89.3567 107.434C88.1554 107.324 86.9777 107.12 85.8419 106.689C85.3109 106.485 84.8185 106.213 84.385 105.847C84.1768 105.668 83.9937 105.471 83.8707 105.218C83.6368 104.747 83.6897 104.299 84.0457 103.906C84.2667 103.661 84.5393 103.48 84.8353 103.328C85.4239 103.028 86.0459 102.834 86.6928 102.711C87.3363 102.593 87.9755 102.472 88.5993 102.262C88.9207 102.154 89.2802 102.159 89.6242 102.134C90.5309 102.069 91.4406 102.028 92.3463 101.955C94.3604 101.792 96.3721 101.609 98.3829 101.45C101.467 101.204 104.546 100.916 107.627 100.612C109.056 100.473 110.486 100.305 111.915 100.158C113.635 99.9805 115.353 99.8077 117.074 99.6345C117.128 99.6276 117.193 99.6429 117.233 99.618C117.945 99.231 118.728 99.3713 119.481 99.3379C120.556 99.2909 121.625 99.3905 122.666 99.6949C123.883 100.052 124.84 100.777 125.588 101.782C125.821 102.095 125.801 102.156 125.432 102.255C123.834 102.681 122.229 103.087 120.61 103.441C118.727 103.856 116.844 104.278 114.959 104.674C113.749 104.927 112.533 105.166 111.313 105.374C108.557 105.837 105.796 106.329 102.786 106.695Z" fill="#5A3A83"/>
<path d="M146.265 155.412C146.109 154.221 146.062 153.024 145.952 151.831C145.799 150.171 145.656 148.505 145.537 146.84C145.473 145.933 145.318 145.034 145.293 144.13C145.252 142.798 144.994 141.495 144.892 140.171C144.555 135.907 143.926 131.677 143.321 127.451C142.981 125.077 142.738 122.687 142.31 120.328C142.072 119.025 141.973 117.697 141.608 116.419C141.514 116.088 141.424 115.756 141.319 115.426C141.152 114.892 141.21 114.793 141.76 114.711C141.814 114.704 141.868 114.693 141.922 114.686C143.368 119.968 145.246 125.114 146.881 130.336C147.655 132.8 148.42 135.266 148.942 137.798C149.1 138.567 149.191 139.344 149.24 140.122C149.254 140.322 149.267 140.521 149.285 140.72C149.412 142.202 150.223 143.116 151.623 143.548C152.555 143.835 153.511 143.941 154.477 143.908C155.459 143.873 155.45 143.866 155.658 144.813C155.824 145.581 155.916 146.358 156.003 147.132C156.017 147.276 156.001 147.424 156.015 147.568C156.055 147.938 155.883 148.165 155.582 148.373C153.541 149.802 151.553 151.307 149.583 152.833C148.465 153.682 147.365 154.549 146.265 155.412Z" fill="#A76A2B"/>
<path d="M106.251 160.96C106.052 160.981 105.86 160.868 105.665 160.794C102.94 159.806 100.175 158.978 97.317 158.464C96.0979 158.246 94.8746 158.087 93.6375 158.005C93.4109 157.991 93.2191 157.94 93.0425 157.793C91.1038 156.176 88.9281 154.925 86.733 153.707C83.5017 151.913 80.17 150.32 76.7887 148.833C76.6298 148.763 76.44 148.728 76.3138 148.574C76.4473 148.415 76.635 148.403 76.8033 148.362C79.5617 147.697 82.3413 147.628 85.1472 148.01C88.0568 148.403 90.82 149.283 93.4804 150.5C96.7108 151.979 99.6548 153.901 102.406 156.136C103.52 157.042 104.417 158.13 105.222 159.305C105.552 159.783 105.896 160.252 106.233 160.729C106.271 160.784 106.322 160.844 106.251 160.96Z" fill="#3F713F"/>
<path d="M67.3457 83.9771C67.2155 82.992 67.4674 81.9106 68.0485 80.9054C68.7759 79.6566 69.7217 78.5731 70.6718 77.4929C70.9508 77.1771 71.299 77.0931 71.7098 77.1903C72.222 77.3101 72.7248 77.4783 73.226 77.635C74.6146 78.0683 76.0109 78.4692 77.4719 78.6054C77.5636 78.6133 77.6514 78.6218 77.7432 78.6298C78.0111 78.6585 78.3401 78.5178 78.5236 78.6875C78.6847 78.8365 78.6895 79.1514 78.764 79.3942C78.7788 79.4476 78.7935 79.5009 78.8116 79.5499C78.9648 79.9759 79.1961 80.3959 79.2484 80.8348C79.2997 81.2661 78.9189 81.6185 78.8072 82.0391C78.5697 82.9254 78.5284 83.8338 78.4948 84.7413C78.4672 85.5415 78.4473 86.3408 78.3716 87.1353C78.2242 88.7239 77.4673 89.9883 76.3527 91.0777C76.2056 91.2228 76.065 91.2645 75.8664 91.2229C73.2872 90.6699 70.9515 89.648 69.0876 87.7216C68.0912 86.6858 67.5089 85.4352 67.3457 83.9771Z" fill="#FFEE00"/>
<path d="M97.6902 111.546C97.7665 111.433 97.8685 111.46 97.9806 111.473C100.896 111.876 103.825 112.176 106.754 112.412C107.981 112.511 109.213 112.582 110.449 112.557C111.515 112.535 112.588 112.603 113.654 112.549C114.305 112.517 114.959 112.484 115.61 112.452C117.611 112.345 119.588 112.045 121.568 111.767C122.35 111.655 123.14 111.511 123.909 111.29C124.327 111.169 124.757 111.11 125.183 111.012C126.474 110.717 127.738 110.33 129.005 109.943C130.694 109.427 132.325 108.76 133.909 107.985C136.704 106.621 139.26 104.894 141.555 102.801C142.279 102.14 142.962 101.438 143.564 100.655C143.851 100.283 144.209 99.9646 144.483 99.5785C145.682 97.8866 146.838 96.1649 147.493 94.172C148.104 92.3189 148.463 90.4114 148.511 88.449C148.533 87.4838 148.532 86.5177 148.328 85.5775C148.087 84.4646 147.815 83.3557 147.402 82.2847C147.148 81.627 146.863 80.9733 146.779 80.2583C146.77 80.1846 146.74 80.1095 146.756 80.0444C146.908 79.4452 146.523 79.0922 146.144 78.7503C145.498 78.1666 144.862 77.5737 144.225 76.9769C143.297 76.1097 142.408 75.2022 141.498 74.3171C140.323 73.178 139.211 71.9795 138.149 70.7392C137.903 70.4551 137.547 70.264 137.408 69.8874C137.516 69.8619 137.624 69.8441 137.726 69.8113C138.011 69.7274 138.198 69.8336 138.374 70.0674C139.14 71.0893 140.012 72.0149 140.948 72.8849C143.044 74.8407 145.306 76.5781 147.839 77.9376C148.139 78.1002 148.275 78.2958 148.361 78.6279C148.676 79.8221 149.055 81 149.393 82.1912C149.877 83.9079 150.282 85.6466 150.439 87.4289C150.698 90.4011 150.129 93.223 148.884 95.9184C147.078 99.8257 144.371 102.985 140.895 105.497C137.707 107.798 134.19 109.436 130.465 110.651C127.815 111.515 125.105 112.127 122.358 112.605C119.734 113.063 117.088 113.312 114.435 113.443C110.669 113.629 106.907 113.544 103.172 112.93C101.484 112.653 99.8134 112.295 98.1901 111.754C98.0177 111.701 97.8294 111.678 97.6902 111.546Z" fill="#5A3A83"/>
<path d="M167.182 134.674C167.164 134.258 166.927 133.918 166.77 133.555C165.135 129.844 163.508 126.132 161.679 122.51C160.558 120.287 159.344 118.111 158.021 115.998C156.146 113.004 153.841 110.376 151.328 107.91C150.052 106.662 148.736 105.47 147.292 104.416C146.608 103.916 145.861 103.558 145.008 103.459C145.721 103.241 146.447 103.306 147.165 103.399C150.276 103.793 152.848 105.239 154.999 107.471C156.478 109.005 157.598 110.794 158.631 112.638C160.043 115.163 161.33 117.758 162.761 120.273C165.123 124.423 167.677 128.442 170.707 132.147C171.086 132.612 171.437 133.099 171.689 133.651C172.011 134.351 171.861 134.965 171.355 135.508C170.9 135.992 170.326 136.31 169.737 136.606C169.603 136.675 169.489 136.677 169.429 136.516C169.303 136.181 169.181 135.841 169.047 135.476C169.305 135.396 169.471 135.52 169.643 135.597C169.759 135.645 169.872 135.721 169.993 135.745C170.187 135.783 170.36 135.718 170.442 135.522C170.529 135.314 170.474 135.127 170.294 134.989C169.936 134.715 169.525 134.586 169.085 134.536C168.441 134.465 167.814 134.62 167.182 134.674Z" fill="#A76A2B"/>
<path d="M66.5459 160.569C66.8789 160.613 67.0917 160.858 67.3185 161.058C68.2429 161.87 69.3101 161.919 70.3994 161.586C72.0316 161.089 73.4905 160.255 74.8143 159.166C76.5121 157.766 78.1136 156.259 79.7243 154.763C80.4433 154.095 81.1262 153.392 81.8228 152.703C81.9385 152.59 82.0438 152.458 82.0987 152.301C83.5899 152.982 85.0243 153.772 86.4581 154.559C86.5009 154.585 86.5312 154.636 86.5633 154.671C86.5508 154.85 86.4015 154.917 86.2941 155.002C83.2909 157.481 80.2736 159.942 77.0862 162.184C75.5524 163.264 73.9741 164.275 72.2119 164.958C71.2766 165.323 70.3171 165.592 69.2917 165.53C68.5088 165.484 67.9502 165.126 67.5866 164.443C67.3177 163.945 67.1157 163.415 66.9825 162.868C66.7948 162.111 66.5722 161.358 66.5459 160.569Z" fill="#5A3A83"/>
<path d="M114.016 58.9377C121.626 58.0611 127.825 63.4707 128.69 70.2777C129.609 77.48 124.542 84.0768 117.356 85.0015C110.198 85.9228 103.578 80.8353 102.648 73.7014C101.708 66.4861 106.797 59.8786 114.016 58.9377ZM127.786 70.4289C126.922 63.7127 120.824 59.004 114.104 59.8691C107.391 60.7293 102.664 66.8369 103.515 73.5391C104.372 80.2603 110.513 85.0028 117.241 84.1328C123.941 83.2664 128.654 77.1408 127.786 70.4289Z" fill="#6E4F93"/>
<path d="M102.113 68.2312C98.3381 63.15 91.9621 62.0226 87.0731 64.2504C82.3143 66.4181 79.4537 71.3636 79.9661 76.5632C80.4847 81.8408 84.262 86.1724 89.3905 87.3216C92.4442 88.007 95.366 87.601 98.1053 86.0787C100.823 84.5709 102.665 82.2958 103.731 79.3787C103.968 79.51 104.019 79.7243 104.152 79.8689C104.358 80.0871 104.334 80.3031 104.218 80.5665C103.712 81.7278 103.082 82.8103 102.249 83.761C98.9255 87.5551 94.7391 89.1722 89.7787 88.2579C84.7736 87.3335 81.3473 84.3255 79.7117 79.5025C77.3793 72.6272 81.1286 65.229 87.9841 62.9268C92.9947 61.2474 98.5689 62.7654 102.06 66.7393C102.42 67.1507 102.542 67.5137 102.288 67.9959C102.241 68.0649 102.251 68.1702 102.113 68.2312Z" fill="#6E4F93"/>
<path d="M65.2842 92.0579C64.7104 92.1353 64.1593 92.0206 63.613 91.8816C63.4212 91.8312 63.3029 91.7083 63.2034 91.5475C62.2135 89.9469 61.0008 88.5168 59.7887 87.0906C59.3523 86.5786 58.8802 86.0948 58.3185 85.7132C58.0462 85.5273 57.7643 85.3583 57.4457 85.2729C57.1718 85.1976 57.115 85.0313 57.1501 84.7823C57.3461 83.5109 57.6946 82.2909 58.4327 81.2182C59.3771 79.847 60.7778 79.7897 61.8415 81.0733C62.3032 81.6294 62.5838 82.2797 62.8498 82.9397C63.5412 84.6417 64.2253 86.3486 65.1623 87.9362C65.495 88.501 65.8276 89.0657 66.138 89.6412C66.2932 89.929 66.4266 90.2313 66.5295 90.5416C66.7656 91.2764 66.4722 91.7873 65.7158 91.9789C65.5738 92.0089 65.4268 92.0317 65.2842 92.0579Z" fill="#6E4F93"/>
<path d="M94.4107 142.809C94.5991 142.71 94.6019 142.516 94.6382 142.338C95.3584 138.909 96.1353 135.493 97.0468 132.111C97.5947 130.076 98.2124 128.064 99.007 126.109C99.2473 125.522 99.4332 124.911 99.6483 124.311C99.7156 124.129 99.7354 123.913 99.934 123.801C99.9953 124.188 99.8732 124.558 99.8191 124.936C99.0867 130.055 98.6096 135.196 98.4475 140.363C98.3557 143.309 98.3784 146.257 98.6951 149.19C98.704 149.26 98.6936 149.332 98.6945 149.462C98.3568 149.32 98.1232 149.097 97.8601 148.922C97.7779 148.866 97.7559 148.786 97.759 148.687C97.7751 147.951 97.4834 147.306 97.1467 146.679C96.4468 145.372 95.5732 144.187 94.6133 143.067C94.5359 142.986 94.4769 142.895 94.4107 142.809Z" fill="#A76A2B"/>
<path d="M117.182 98.5905C118.009 97.5933 118.96 97.1085 120.123 97.0462C120.687 97.0134 121.25 97.0044 121.812 97.0152C122.879 97.0323 123.909 96.8253 124.933 96.564C125.25 96.484 125.566 96.4 125.885 96.3316C127.524 95.9834 128.407 96.5644 129.179 97.8144C129.622 98.5346 129.863 99.3398 130.039 100.157C130.383 101.762 130.606 103.382 130.674 105.018C130.694 105.548 130.687 106.077 130.523 106.583C130.295 107.295 129.785 107.411 129.251 106.876C128.953 106.575 128.737 106.217 128.569 105.832C128.247 105.1 127.943 104.362 127.632 103.625C127.395 103.072 127.126 102.538 126.816 102.026C125.526 99.868 123.622 98.7118 121.124 98.5114C119.853 98.4139 118.582 98.4702 117.182 98.5905Z" fill="#A2EAF0"/>
<path d="M56.6424 92.3777C56.5296 92.4513 56.4328 92.373 56.3385 92.3456C55.8223 92.1948 55.3078 92.1503 54.7748 92.2383C54.3655 92.3066 54.3635 92.2911 54.2211 91.9188C53.8048 90.8245 53.8121 89.7114 54.0988 88.594C54.2613 87.9539 54.521 87.3645 54.9216 86.8281C55.6653 85.8296 56.8641 85.7667 57.769 86.3962C58.0506 86.5928 58.3341 86.8049 58.5673 87.0551C60.0581 88.6546 61.4452 90.3384 62.5912 92.203C63.0243 92.9048 63.3343 93.6617 63.3597 94.5064C63.379 95.0877 63.1937 95.5808 62.7188 95.9374C62.3266 96.2322 62.034 96.2263 61.6382 95.9378C60.6849 95.2396 59.7148 94.5633 58.7988 93.817C58.6004 93.6531 58.4397 93.4765 58.3007 93.2537C57.6703 92.2735 57.0331 91.3022 56.609 90.2088C56.4975 89.9233 56.2648 89.8309 56.0472 89.9179C55.8068 90.0118 55.7076 90.2533 55.8293 90.5572C56.0225 91.0491 56.2453 91.5254 56.498 91.9899C56.5644 92.1076 56.6918 92.2096 56.6424 92.3777Z" fill="#6E4F93"/>
<path d="M136.052 109.429C135.918 109.647 135.728 109.763 135.564 109.902C132.714 112.251 129.49 113.898 125.954 114.931C120.529 116.514 115.051 116.644 109.538 115.414C108.47 115.176 107.433 114.84 106.423 114.409C106.34 114.372 106.263 114.327 106.141 114.264C106.31 114.167 106.438 114.218 106.566 114.229C109.421 114.439 112.274 114.448 115.132 114.291C118.121 114.125 121.082 113.781 124.019 113.215C128.017 112.443 131.902 111.306 135.605 109.573C135.72 109.519 135.836 109.473 135.956 109.422C135.971 109.416 135.992 109.421 136.052 109.429Z" fill="#CF9356"/>
<path d="M77.0991 145.815C82.548 144.786 87.8746 145.172 93.0237 147.312C97.769 149.288 101.553 152.498 104.762 156.552C104.288 156.577 104.002 156.44 103.709 156.186C99.0841 152.164 93.9129 149.143 87.9177 147.663C85.1605 146.983 82.3571 146.774 79.5232 147.035C79.336 147.051 79.17 147.048 79.0057 146.935C78.4143 146.506 77.7452 146.21 77.0991 145.815Z" fill="#A2EAF0"/>
<path d="M105.913 156.822C105.827 156.616 105.959 156.509 106.023 156.386C106.426 155.625 106.955 154.954 107.511 154.303C110.191 151.151 113.101 148.222 116.16 145.44C119.487 142.411 122.97 139.579 126.687 137.043C126.938 136.873 127.176 136.578 127.475 136.603C127.75 136.627 127.922 136.952 128.157 137.123C128.466 137.348 128.774 137.573 129.044 137.771C129.068 137.953 128.969 137.985 128.9 138.026C124.22 140.562 120.029 143.777 116.026 147.256C112.672 150.17 109.473 153.246 106.393 156.445C106.261 156.585 106.163 156.775 105.913 156.822Z" fill="#A2EAF0"/>
<path d="M86.89 160.935C87.87 161.042 88.815 161.308 89.7572 161.581C91.9772 162.224 94.2522 162.618 96.5085 163.083C98.0923 163.408 99.6637 163.79 101.187 164.349C102.263 164.743 103.351 165.109 104.429 165.487C106.386 166.175 108.273 167.022 110.121 167.96C110.379 168.093 110.646 168.208 110.913 168.324C111.13 168.418 111.282 168.553 111.305 168.798C108.901 167.702 106.353 167.114 103.765 166.68C101.944 166.377 100.19 165.833 98.4777 165.153C96.8152 164.491 95.0879 164.061 93.3308 163.738C91.9534 163.485 90.5655 163.272 89.2288 162.844C88.6037 162.644 87.9897 162.407 87.4808 161.976C87.166 161.704 86.8565 161.413 86.89 160.935Z" fill="#5A3A83"/>
<path d="M89.1017 145.104C89.0935 144.947 89.181 144.829 89.2728 144.715C89.676 144.23 89.6627 143.695 89.4722 143.132C89.2484 142.462 88.9455 141.823 88.6432 141.187C88.1583 140.172 87.7494 139.136 87.4374 138.056C87.4169 137.988 87.4152 137.913 87.4023 137.844C88.7178 138.63 89.8883 139.608 91.0283 140.625C92.5781 142.008 93.9836 143.528 95.2087 145.209C95.4821 145.588 95.4898 145.587 95.141 145.911C94.8768 146.158 94.5995 146.395 94.3309 146.638C94.2003 146.758 94.07 146.818 93.8897 146.734C92.3513 146.024 90.7301 145.562 89.1017 145.104Z" fill="#5A3A83"/>
<path d="M98.3882 166.089C98.0474 166.168 97.7183 165.97 97.3884 166.012C97.3358 166.248 97.5009 166.305 97.606 166.387C98.4751 167.044 99.2829 167.777 100.097 168.501C100.961 169.27 101.98 169.802 103.045 170.233C104.78 170.938 106.541 171.568 108.314 172.177C108.624 172.283 108.947 172.34 109.265 172.422C109.477 172.477 109.7 172.528 109.717 172.813C107.355 172.233 104.944 171.847 102.657 170.993C100.797 170.296 99.2169 169.201 97.9651 167.65C97.5993 167.196 97.2698 166.718 97.0062 166.199C96.911 166.01 96.777 165.826 96.8468 165.51C97.3699 165.683 97.8997 165.817 98.3882 166.089Z" fill="#5A3A83"/>
<path d="M103.718 172.289C103.734 172.445 103.819 172.556 103.941 172.647C104.84 173.352 105.664 174.146 106.604 174.802C107.201 175.219 107.869 175.504 108.543 175.777C109.112 176.007 109.683 176.242 110.253 176.476C110.39 176.53 110.531 176.579 110.564 176.748C110.178 176.809 109.804 176.723 109.429 176.665C107.292 176.327 105.372 175.536 103.847 173.945C103.291 173.361 102.851 172.696 102.459 171.914C102.936 171.975 103.323 172.135 103.718 172.289Z" fill="#5A3A83"/>
<path d="M137.465 68.9213C137.315 69.0431 137.128 69.0238 136.953 69.0462C134.669 69.3546 132.381 69.6596 130.097 69.9641C130.008 69.9755 129.915 69.9836 129.826 69.9989C129.557 70.057 129.476 69.9175 129.445 69.6769C129.415 69.4363 129.515 69.3564 129.735 69.3203C131.244 69.0954 132.753 68.8627 134.258 68.6343C135.032 68.5193 135.802 68.4087 136.577 68.2977C137.217 68.2117 137.255 68.2344 137.465 68.9213Z" fill="#6E4F93"/>
<path d="M108.742 161.911C108.253 161.883 107.915 161.646 107.638 161.236C106.919 160.185 106.165 159.161 105.428 158.124C105.328 157.983 105.193 157.854 105.173 157.64C105.547 157.544 105.775 157.716 105.967 157.984C106.655 158.921 107.354 159.853 108.035 160.795C108.289 161.149 108.601 161.46 108.779 161.863C108.765 161.877 108.755 161.894 108.742 161.911Z" fill="#3F713F"/>
<path d="M96.701 148.18C96.1503 147.884 95.5991 147.584 95.0144 147.268C95.3103 146.931 95.6065 146.656 95.9618 146.382C96.3245 146.935 96.6382 147.474 96.701 148.18Z" fill="#A76A2B"/>
<path d="M84.3047 86.9922C84.532 87.0735 84.6784 87.1691 84.8327 87.3268C84.7372 87.5047 84.5935 87.6454 84.4121 87.8303C84.3743 87.5354 84.3435 87.2948 84.3047 86.9922Z" fill="#FFEE00"/>
<path d="M99.9434 123.749C99.9231 123.68 99.9426 123.622 99.9907 123.577C100.007 123.642 99.999 123.702 99.9434 123.749Z" fill="#A76A2B"/>
<path d="M108.78 161.87C108.795 161.892 108.805 161.914 108.82 161.936C108.796 161.931 108.768 161.923 108.744 161.918C108.757 161.9 108.766 161.883 108.78 161.87Z" fill="#3F713F"/>
<path d="M98.5509 166.149C98.502 166.128 98.4493 166.107 98.4004 166.086C98.4615 166.082 98.5104 166.103 98.5509 166.149Z" fill="#5A3A83"/>
<path d="M127.786 70.4259C128.651 77.1422 123.938 83.2677 117.241 84.1298C110.514 84.9998 104.373 80.2573 103.515 73.5361C102.66 66.8305 107.391 60.7263 114.104 59.866C120.825 59.001 126.921 63.7058 127.786 70.4259ZM114.19 60.6873C107.952 61.5023 103.55 67.2213 104.362 73.4631C105.172 79.6973 110.891 84.0995 117.13 83.2922C123.361 82.4859 127.769 76.7543 126.954 70.5168C126.141 64.2672 120.431 59.8717 114.19 60.6873Z" fill="#070504"/>
<path d="M114.19 60.6879C120.432 59.8723 126.142 64.2678 126.958 70.517C127.773 76.7545 123.365 82.486 117.134 83.2923C110.892 84.1001 105.177 79.6974 104.366 73.4633C103.554 67.2214 107.953 61.503 114.19 60.6879Z" fill="#A2EAF0"/>
</g>
<defs>
<clipPath id="clip0_1113_1025">
<rect x="21.4688" y="43.6562" width="164" height="164" rx="25" transform="rotate(-7.30221 21.4688 43.6562)" fill="white"/>
</clipPath>
</defs>
</svg>
