<svg xmlns="http://www.w3.org/2000/svg" width="34" height="37" viewBox="0 0 34 37"><path d="m33.386 6.154-4.415-3.742a1.716 1.716 0 0 0-2.435.211l-.898 1.076H1.667a.68.68 0 0 0-.667.68v25.997c0 .37.297.674.667.674h4.554l-.634 3.148a.683.683 0 0 0 .224.647.643.643 0 0 0 .429.158c.08 0 .165-.013.245-.046l7.695-3.069c.007 0 .007-.007.013-.007l.047-.02c.006-.006.013-.006.019-.013a.192.192 0 0 0 .047-.033c.006-.006.013-.006.019-.013.014-.013.033-.026.047-.04l.013-.013a.47.47 0 0 0 .053-.059l.534-.647h12.402a.67.67 0 0 0 .666-.673V15.308l2.528-3.049 3.023-3.636c.62-.74.521-1.848-.205-2.469ZM2.333 29.703V18.047h3.993a.67.67 0 0 0 .667-.673.67.67 0 0 0-.667-.673H2.333V5.052h11.161V8.88c0 .37.284.686.647.7a.67.67 0 0 0 .686-.674V5.052h9.702l-1.01 1.214-8.672 10.442h-.027v-3.815c0-.37-.283-.687-.646-.7a.67.67 0 0 0-.687.673v3.842h-3.003a.67.67 0 0 0-.666.673.67.67 0 0 0 .666.673h3.241l-6.343 7.649a.343.343 0 0 0-.046.06c-.007.006-.007.013-.013.02a.216.216 0 0 0-.027.052c0 .007-.006.014-.006.02-.007.02-.013.04-.02.053 0 .007-.007.013-.007.013L7.244 26l-.746 3.703Zm4.798 3.551.317-1.558 1.149.977Zm2.871-1.148-2.257-1.914.568-2.819 4.336 3.677Zm16.712-2.403h-10.62l10.62-12.797Zm-12.864.614-5.029-4.264L21.962 10.22c.079.105.171.204.277.297l1.696 1.439-11.088 13.358a.683.683 0 0 0 .079.95.664.664 0 0 0 .937-.079l11.089-13.358 1.696 1.439c.105.085.218.165.336.224Zm14.223-17.134a.39.39 0 0 1-.27.139.421.421 0 0 1-.291-.093l-2.204-1.874-2.204-1.874a.406.406 0 0 1-.047-.568l1.056-1.274 5.03 4.264Zm4.502-5.425-2.594 3.122-5.023-4.264 2.594-3.122a.386.386 0 0 1 .271-.138h.033c.092 0 .184.033.257.092l4.415 3.749c.165.132.185.389.047.561Z"/></svg>