<svg xmlns="http://www.w3.org/2000/svg" width="35" height="35" viewBox="0 0 35 35"><path d="M29.169 32.59H5.65a2.066 2.066 0 0 1-2.06-2.06V7.011a2.067 2.067 0 0 1 2.06-2.06h23.519a2.067 2.067 0 0 1 2.06 2.06V30.53a2.067 2.067 0 0 1-2.06 2.06ZM5.65 6.132a.879.879 0 0 0-.879.879V30.53a.88.88 0 0 0 .879.879h23.519a.875.875 0 0 0 .879-.879V7.011a.876.876 0 0 0-.258-.621.876.876 0 0 0-.621-.258Z"/><path d="M4.18 11.445h26.458v1.18H4.18ZM9.558 2.59h1.181v2.952H9.558Zm14.144 0h1.181v2.952h-1.181ZM12.268 20.589H7.457v-4.817h4.811Zm-3.631-1.181h2.45v-2.456h-2.45Zm11.092 1.181h-4.811v-4.817h4.811Zm-3.63-1.181h2.45v-2.456h-2.45Zm11.003 1.181h-4.817v-4.817h4.817Zm-3.636-1.181h2.456v-2.456h-2.456Zm-11.068 8.123H7.586v-4.817h4.812ZM8.767 26.35h2.45v-2.455h-2.45Zm11.098 1.181h-4.817v-4.817h4.811Zm-3.63-1.181h2.449v-2.455h-2.455Zm10.997 1.181h-4.811v-4.817h4.811Zm-3.63-1.181h2.45v-2.455h-2.45Z"/></svg>