<svg xmlns="http://www.w3.org/2000/svg" width="34" height="37" viewBox="0 0 34 37"><path d="M4.844 1h25.728a3.854 3.854 0 0 1 3.844 3.844v27.312A3.854 3.854 0 0 1 30.572 36H4.844A3.853 3.853 0 0 1 1 32.156V4.844A3.853 3.853 0 0 1 4.844 1Zm6.655 26.802V9.198h7.024c1.235 0 2.179.06 2.833.178 2.727.452 4.356 2.37 4.356 5.192 0 4.306-3.14 5.647-6.972 5.647h-4.773v7.587Zm2.468-9.77h4.808c2.377 0 4.391-.656 4.391-3.391 0-1.411-.73-2.704-2.144-3.096-.415-.108-1.182-.164-2.295-.164h-4.76ZM5.33 3.087h24.756a2.245 2.245 0 0 1 2.236 2.236v26.354a2.244 2.244 0 0 1-2.236 2.236H5.33a2.244 2.244 0 0 1-2.236-2.236V5.323A2.245 2.245 0 0 1 5.33 3.087Zm24.756 1.197H5.33a1.04 1.04 0 0 0-1.038 1.039v26.354a1.04 1.04 0 0 0 1.038 1.039h24.756a1.04 1.04 0 0 0 1.038-1.039V5.323a1.04 1.04 0 0 0-1.038-1.039Zm.486-2.086H4.844a2.655 2.655 0 0 0-2.646 2.646v27.312a2.655 2.655 0 0 0 2.646 2.646h25.728a2.655 2.655 0 0 0 2.646-2.646V4.844a2.655 2.655 0 0 0-2.646-2.646Z"/></svg>