<svg xmlns="http://www.w3.org/2000/svg" width="34" height="37" viewBox="0 0 34 37"><path d="M4.882 30.789h13.002a.584.584 0 0 0 .551-.401.58.58 0 0 0-.211-.646L5.222 20.398a.577.577 0 0 0-.598-.047.589.589 0 0 0-.313.517v9.343a.568.568 0 0 0 .571.578Zm.578-8.799 10.636 7.643H5.46Z"/><path d="m33.762 34.053-3.883-2.843V18.678h3.543a.573.573 0 0 0 .408-.979l-5.814-5.828V4.48a.577.577 0 0 0-.578-.578H23.29a.577.577 0 0 0-.578.578v2.094L17.408 1.27a.57.57 0 0 0-.816 0L4.923 12.932.918 10.001a.573.573 0 0 0-.605-.047.567.567 0 0 0-.313.516v24.052c0 .32.258.578.578.578h32.844a.587.587 0 0 0 .551-.394.584.584 0 0 0-.211-.653ZM17 2.487l5.882 5.882a.566.566 0 0 0 .626.123.571.571 0 0 0 .353-.531V5.058h2.992v7.051a.57.57 0 0 0 .17.408l4.998 5.005h-2.727a.578.578 0 0 0-.578.578v12.267l-6.718-4.93v-4.665a.578.578 0 0 0-.578-.578h-6.576l-8.976-6.568Zm3.849 22.107-4.427-3.237h4.427Zm7.867 9.343v-.619a.578.578 0 1 0-1.156 0v.619h-2.352v-1.441a.578.578 0 1 0-1.156 0v1.441h-2.353v-.619a.578.578 0 0 0-1.156 0v.619H18.19v-1.441a.577.577 0 1 0-1.156 0v1.441h-2.353v-.619a.578.578 0 1 0-1.156 0v.619h-2.353v-1.441a.577.577 0 1 0-1.156 0v1.441H7.664v-.619a.578.578 0 0 0-1.156 0v.619h-2.36v-1.441a.577.577 0 1 0-1.156 0v1.441H1.156V11.606l30.505 22.331Z"/></svg>