<svg xmlns="http://www.w3.org/2000/svg" width="35" height="35" viewBox="0 0 35 35"><path d="m20.997 6.761 3.779.007 5.983.01 1.38.002-.51-.512-.002 1.298-.006 3.099-.006 3.766-.006 3.245c-.001.528-.019 1.06-.002 1.588v.023c-.001.268.234.524.51.513a.522.522 0 0 0 .513-.511l.002-1.298.005-3.099.007-3.767.005-3.244c.001-.528.019-1.06.003-1.589V6.27a.52.52 0 0 0-.511-.513l-3.779-.006-5.983-.011-1.38-.002c-.268 0-.524.235-.513.511a.52.52 0 0 0 .511.512Z"/><path d="m28.507 19.793 3.163.006.447.001-.51-.513-.003 1.287-.005 3.072-.006 3.735-.006 3.228c-.001.518-.035 1.049-.002 1.566v.023l.512-.51-3.163-.006h-.448c-.267-.001-.524.234-.512.51a.52.52 0 0 0 .511.513l3.162.005.448.001a.52.52 0 0 0 .513-.511l.002-1.286.005-3.073.006-3.734.006-3.229c.001-.521.019-1.045.003-1.566v-.023a.519.519 0 0 0-.511-.512l-3.163-.006-.448-.001c-.267 0-.524.235-.512.511a.52.52 0 0 0 .511.512Zm-13.19-1.045-2.895-.005-4.592-.008-1.053-.002.51.513.003-1.6.007-3.806.008-4.637.006-3.993c.002-.644.036-1.298.004-1.942V3.24l-.513.511 1.413.002 3.39.006 4.103.007 3.547.006c.571.001 1.153.036 1.724.003h.024l-.511-.512-.003 1.6-.006 3.806-.008 4.636-.007 3.994c-.001.646-.021 1.295-.003 1.942v.027c-.001.268.234.524.51.513a.52.52 0 0 0 .513-.511l.002-1.6.007-3.806.008-4.637.007-3.993c.001-.646.021-1.295.003-1.942v-.027a.519.519 0 0 0-.511-.513l-1.412-.002-3.391-.006-4.102-.007-3.547-.006c-.573-.001-1.15-.02-1.724-.003h-.024a.519.519 0 0 0-.512.511l-.003 1.599-.006 3.807-.008 4.636-.007 3.994c-.001.646-.021 1.295-.003 1.941l-.001.028a.52.52 0 0 0 .511.512l2.896.005 4.591.008 1.053.002c.268 0 .525-.235.513-.511a.52.52 0 0 0-.511-.512Z"/><path d="m13.582 18.745-2.298-.004-3.664-.006-.843-.002.51.513.008-4.735.001-.681-.512.51 2.298.004 3.664.006.843.002-.511-.513-.002 1.181c0 .268.235.524.511.512a.52.52 0 0 0 .512-.51l.002-1.181a.518.518 0 0 0-.51-.512l-2.298-.004-3.664-.006-.843-.002a.52.52 0 0 0-.513.511l-.008 4.735-.001.681a.52.52 0 0 0 .511.512l2.297.004 3.664.006.844.002c.267 0 .524-.234.512-.511a.52.52 0 0 0-.51-.512Zm2.974-1.83 2.49 2.406c.105.101.207.208.316.306.198.176.417.151.656.152l2.007.003 1.622.003c.268.001.525-.234.513-.511a.52.52 0 0 0-.511-.512l-3.438-.006-.485-.001.362.151-2.457-2.374-.351-.339a.52.52 0 0 0-.723-.002.52.52 0 0 0-.001.724Z"/><path d="m14.797 23.886-.005 2.802-.007 4.463-.002 1.019.512-.51-1.204-.003-2.892-.004-3.499-.006-3.027-.006c-.488 0-.986-.03-1.473-.002h-.022l.511.512.002-1.286.005-3.073a4638.913 4638.913 0 0 0 .012-6.963c.001-.518.035-1.049.003-1.566v-.023l-.512.511 1.204.002 2.891.005 3.5.005 3.027.006c.488 0 .986.03 1.473.002h.021l-.51-.512-.002 1.076.15-.362-2.746 2.646-.384.37a.518.518 0 0 0-.001.723.518.518 0 0 0 .723.001l1.541-1.484 1.063-1.024c.174-.168.36-.329.525-.506.199-.213.152-.531.152-.8l.001-.638a.519.519 0 0 0-.51-.513l-1.204-.002-2.892-.005-3.499-.006-3.027-.005c-.49-.001-.984-.018-1.474-.002H3.2a.518.518 0 0 0-.512.51l-.002 1.287-.006 3.072-.006 3.734-.006 3.229c-.001.521-.019 1.046-.002 1.566v.023a.519.519 0 0 0 .51.513l1.204.002 2.892.005 3.499.006 3.027.005c.49.001.984.018 1.474.002l.021.001a.519.519 0 0 0 .512-.511l.005-2.802.008-4.463.002-1.019c0-.268-.235-.525-.511-.513a.52.52 0 0 0-.512.511Z"/><path d="m27.021 28.566-3.591 2.85-.511.407.362-.15-2.704-.004-4.291-.007-.991-.002.511.512.005-2.802.008-4.462.001-1.02c.001-.268-.234-.524-.51-.512a.52.52 0 0 0-.513.51l-.005 2.802-.007 4.463-.002 1.019a.52.52 0 0 0 .511.513l1.985.003 3.756.007c.741.001 1.488.03 2.228.003.288-.01.565-.297.784-.471l1.3-1.032c.783-.622 1.589-1.222 2.353-1.868l.043-.034c.217-.172.181-.544.001-.724-.213-.214-.506-.174-.723-.001Z"/></svg>