<svg xmlns="http://www.w3.org/2000/svg" width="35" height="35" viewBox="0 0 35 35"><path d="M17.666 33c-.167 0-.334-.083-.5-.167C16.749 32.5 6.332 25.25 5.999 14.5c-.083-3 1.083-5.833 3.167-8 2.25-2.25 5.333-3.5 8.5-3.5 3.166 0 6.25 1.25 8.416 3.5 2.167 2.167 3.334 5 3.25 8-.25 11.333-10.75 18.083-11.166 18.417-.167 0-.334.083-.5.083Zm0-28.333a10.21 10.21 0 0 0-7.25 3 9.038 9.038 0 0 0-2.667 6.75c.25 8.75 8 15.166 10 16.666 2-1.416 9.75-7.583 9.917-16.666.083-2.5-.917-4.917-2.75-6.834-1.917-1.833-4.584-2.916-7.25-2.916Z"/><path d="M17.666 20.25c-3.25 0-5.917-2.583-5.917-5.75s2.667-5.75 5.917-5.75 5.916 2.583 5.916 5.75-2.666 5.75-5.916 5.75Zm0-9.917c-2.334 0-4.167 1.834-4.167 4.084 0 2.25 1.917 4.083 4.167 4.083s4.166-1.833 4.166-4.083-1.833-4.084-4.166-4.084Z"/></svg>