<svg xmlns="http://www.w3.org/2000/svg" width="35" height="35" viewBox="0 0 35 35"><path d="M22.578 32.2H11.654c-2.437 0-4.454-2.017-4.454-4.454V6.654C7.2 4.217 9.217 2.2 11.654 2.2h11.008c2.437 0 4.454 2.017 4.454 4.454v21.092c0 2.437-2.017 4.454-4.538 4.454ZM11.654 3.629a3.012 3.012 0 0 0-3.025 3.025v21.092a3.012 3.012 0 0 0 3.025 3.025h11.008a3.012 3.012 0 0 0 3.025-3.025V6.654a3.012 3.012 0 0 0-3.025-3.025Z"/><path d="M19.637 28.671h-5.042a.754.754 0 0 1-.756-.757c0-.42.336-.672.756-.672h5.042c.42 0 .756.336.756.756s-.336.673-.756.673Z"/></svg>