<svg xmlns="http://www.w3.org/2000/svg" width="35" height="35" viewBox="0 0 35 35"><path d="M18.25 28.5H5.5v-24H25v15.75a.75.75 0 0 0 1.5 0V3.75a.747.747 0 0 0-.22-.53.747.747 0 0 0-.53-.22h-21a.747.747 0 0 0-.53.22.747.747 0 0 0-.22.53v25.5c0 .199.079.39.22.53.14.141.331.22.53.22h13.5a.75.75 0 0 0 0-1.5Z"/><path d="M21.25 7.5h-12a.75.75 0 0 0 0 1.5h12a.75.75 0 0 0 0-1.5Zm0 4.5h-12a.75.75 0 0 0 0 1.5h12a.75.75 0 0 0 0-1.5Zm0 4.5h-12a.75.75 0 0 0 0 1.5h12a.75.75 0 0 0 0-1.5Zm-6 6a.75.75 0 0 0 0-1.5h-6a.75.75 0 0 0 0 1.5Zm15.382 3.855-3.75-2.25a.75.75 0 0 0-.75 0l-3.75 2.25A.75.75 0 0 0 22 27v5.25c0 .199.079.39.22.53.14.141.331.22.53.22h7.5c.199 0 .39-.079.53-.22a.747.747 0 0 0 .22-.53V27a.75.75 0 0 0-.367-.645ZM29.5 31.5H28V30a.747.747 0 0 0-.22-.53.747.747 0 0 0-.53-.22h-1.5a.747.747 0 0 0-.53.22.747.747 0 0 0-.22.53v1.5h-1.5v-4.073l3-1.8 3 1.8Z"/></svg>