<svg width="2033" height="822" viewBox="0 0 2033 822" fill="none" xmlns="http://www.w3.org/2000/svg">
<path d="M24.5876 79.4958C45.457 58.9927 109.5 20.487 198.717 30.4884C310.238 42.9903 465.454 64.9936 535.236 57.4925C605.018 49.9914 636.975 101.499 732.192 79.4958C827.408 57.4925 916.103 15.4862 1052.41 30.4884C1188.71 45.4907 1347.84 3.48441 1465.23 30.4884C1582.62 57.4925 1887.18 -50.0236 1975.88 30.4884C2046.83 94.8981 2056.31 330.033 2052.18 439.55L2030.01 775.1C1999.36 788.102 1907.53 806.304 1785.44 775.1C1632.84 736.094 1585.23 823.607 1331.54 814.105C1077.84 804.604 732.192 713.607 650.062 742.111C580.436 766.276 -36.0642 826.123 -23.6278 695.604C-31.58 716.434 -36.9161 743.915 -40.2676 767.931C-47.6541 820.861 -45.401 856.96 -40.2676 767.931C-39.0068 746.065 -37.5723 716.651 -36.0642 678.085C-25.6295 411.245 2.19647 159.508 14.8051 66.9939L24.5876 79.4958Z" fill="#000"/>
</svg>
