<svg width="75" height="50" viewBox="0 0 75 50" fill="none" xmlns="http://www.w3.org/2000/svg">
<g clip-path="url(#clip0_1_112)">
<path d="M5.80929 5.67983C5.73183 7.89332 5.65525 10.0836 5.57735 12.3067C6.03073 12.3347 6.47141 12.3807 6.91297 12.3859C9.19517 12.4131 11.4778 12.4244 13.7604 12.4525C14.9048 12.4665 16.0505 12.477 17.1931 12.5365C18.6635 12.6126 19.7751 13.7281 19.8381 15.1325C19.9081 16.6934 18.7222 17.9665 17.1481 18.0089C16.8356 18.0173 16.5218 17.9814 16.2085 17.9779C15.3481 17.9687 14.4873 17.9722 13.627 17.9595C10.9951 17.9201 8.36281 17.8768 5.73096 17.8282C5.5546 17.8251 5.48458 17.8531 5.49114 18.0466C5.57473 20.415 5.65306 22.7838 5.73008 25.1522C5.79573 27.1784 5.86487 29.2042 5.91913 31.2308C5.97428 33.2937 5.9804 35.3584 6.06793 37.4201C6.17383 39.9185 6.33881 42.4146 6.48673 44.9108C6.52874 45.6172 6.47141 46.2946 6.08106 46.9108C5.45788 47.8937 4.30475 48.3746 3.16256 48.1239C2.05319 47.8801 1.18845 46.9593 1.05585 45.8211C0.966573 45.0544 0.925436 44.2811 0.882549 43.5096C0.764392 41.4055 0.638357 39.3018 0.55127 37.1964C0.485189 35.5939 0.483876 33.9887 0.436176 32.3852C0.347339 29.3972 0.251937 26.4086 0.147345 23.421C0.039253 20.3585 -0.0535227 17.2974 0.0353144 14.2336C0.119775 11.3326 0.20905 8.43159 0.287822 5.5306C0.30839 4.78008 0.311016 4.02825 0.298325 3.27729C0.28082 2.23575 0.692184 1.43228 1.51623 0.791599C2.1871 0.269516 2.91836 0.0235731 3.75991 0.0038801C4.25924 -0.00749806 4.74325 -0.000933733 5.23251 0.122913C5.52396 0.196434 5.84124 0.177616 6.14714 0.183305C8.123 0.22094 10.0997 0.229693 12.0747 0.295774C13.9469 0.358353 15.8208 0.439751 17.6876 0.588542C19.1484 0.70495 20.2066 2.00687 20.1182 3.43527C20.0259 4.92362 18.8622 6.04262 17.3708 6.02686C16.482 6.01767 15.5949 5.9249 14.7061 5.89514C13.1101 5.84175 11.5137 5.80499 9.91724 5.76517C8.64158 5.73366 7.36547 5.70784 6.08981 5.68027C6.00272 5.67852 5.91563 5.68027 5.81017 5.68027L5.80929 5.67983Z" fill="black"/>
<path d="M33.1406 22.9884C32.5533 22.9359 31.9673 22.8689 31.3792 22.8339C30.2081 22.7639 29.0362 22.7057 27.8642 22.6527C27.0178 22.6147 26.2686 22.3538 25.7155 21.6891C24.9693 20.792 24.817 19.7789 25.3129 18.7255C25.8236 17.6402 26.7404 17.1435 27.9268 17.1531C29.5827 17.1663 31.2343 17.2687 32.8802 17.4538C32.9796 17.4652 33.0811 17.4551 33.1957 17.4551C33.2312 16.965 33.2561 16.4788 33.3034 15.9952C33.5038 13.9406 33.7218 11.8877 34.3983 9.91969C35.3033 7.28521 37.7667 5.01571 40.4187 4.42273C42.4177 3.97592 44.3582 4.19954 46.1117 5.28616C47.481 6.13427 48.5002 7.35654 49.2337 8.7915C50.1833 10.6501 50.6472 12.6316 50.5671 14.7221C50.5216 15.9015 50.4468 17.0814 50.3365 18.2564C50.2148 19.5531 49.3842 20.5044 48.2171 20.7714C46.3266 21.2038 44.6711 19.6673 44.8693 17.6971C44.9752 16.6464 45.0255 15.5891 45.0745 14.5335C45.124 13.4719 44.8689 12.4653 44.4439 11.4982C44.1796 10.8965 43.7564 10.4142 43.258 10.0046C43.1004 9.87505 42.8646 9.82079 42.6554 9.7779C42.0038 9.6453 41.4033 9.76171 40.8528 10.1599C39.9819 10.7892 39.5242 11.643 39.3133 12.685C38.964 14.4123 38.7426 16.1536 38.7032 17.912C38.6581 19.9312 38.6314 21.9521 38.6682 23.9713C38.7299 27.3462 38.8498 30.7203 38.9417 34.0948C38.9675 35.0422 38.9505 35.9923 39.0078 36.9376C39.15 39.2688 39.1299 41.6022 39.1435 43.9351C39.1491 44.9263 39.2205 45.9171 39.2253 46.9083C39.231 48.0829 38.5413 49.0942 37.4949 49.5187C35.7073 50.2443 33.7791 48.9774 33.7209 47.0326C33.6885 45.9469 33.6631 44.8611 33.6491 43.7754C33.6312 42.3754 33.6526 40.9746 33.6132 39.5751C33.5318 36.6964 33.4119 33.8186 33.3266 30.94C33.2841 29.5041 33.2929 28.067 33.2609 26.6311C33.2343 25.422 33.1822 24.2133 33.1406 22.9879V22.9884Z" fill="black"/>
<path d="M28.9145 33.684C28.9145 34.2743 28.9276 34.8651 28.9106 35.455C28.8961 35.9474 28.8519 36.4393 28.8121 36.9307C28.7281 37.9617 28.7224 39.0077 28.5355 40.0199C27.9583 43.1423 26.5089 45.7479 23.7921 47.529C22.288 48.515 20.6386 49.1132 18.8334 49.1946C17.1652 49.2699 15.5832 48.9075 14.206 47.9413C11.8836 46.3116 10.3221 44.1164 9.61408 41.3586C9.24166 39.9078 9.19834 38.4129 9.26398 36.9237C9.38345 34.2148 10.0701 31.6307 11.0591 29.1178C11.1703 28.8356 11.2258 28.5314 11.3405 28.2509C11.6096 27.5914 11.8656 26.9236 12.1855 26.2886C13.2358 24.2042 14.929 22.8765 17.1289 22.1527C18.2295 21.7903 19.3568 21.7365 20.5003 21.7737C23.0775 21.8573 25.1348 23.0205 26.8594 24.8506C27.4248 25.4506 27.7307 26.2225 27.9614 26.9936C28.2147 27.8417 28.3622 28.7231 28.5324 29.5944C28.7959 30.9436 28.9342 32.3059 28.9154 33.6831L28.9145 33.684ZM23.4206 35.1351C23.3357 34.1767 23.2727 33.1216 23.1414 32.0744C23.0193 31.1025 22.8009 30.1349 22.299 29.285C21.3209 27.6299 19.8575 27.265 18.303 28.1498C17.5171 28.5971 16.9342 29.2999 16.5622 30.148C16.0195 31.3852 15.5867 32.6573 15.2576 33.9693C14.8865 35.4502 14.6599 36.943 14.7714 38.4716C14.8121 39.03 14.838 39.6015 14.9824 40.1372C15.3207 41.3914 16.0642 42.4027 17.0545 43.2307C17.507 43.6088 18.051 43.744 18.6313 43.695C19.7516 43.6001 20.7095 43.1222 21.5042 42.3489C22.4364 41.4421 22.9593 40.2908 23.1318 39.0278C23.3029 37.7744 23.3256 36.501 23.4206 35.1347V35.1351Z" fill="black"/>
<path d="M50.0813 33.6603C49.9842 32.919 49.9024 32.2105 49.7969 31.5055C49.6402 30.4569 49.2818 29.4824 48.7689 28.5489C48.358 27.801 47.7484 27.4886 46.9375 27.4702C46.7699 27.4662 46.6023 27.4697 46.4342 27.4741C46.1891 27.4802 45.9743 27.5485 45.7651 27.696C44.6737 28.4645 43.1958 28.324 42.2589 27.3796C41.3136 26.4265 41.2081 24.9499 41.9932 23.8287C42.4641 23.1561 43.1078 22.7093 43.868 22.4555C46.4053 21.6074 48.8604 21.7995 51.1662 23.1885C52.2668 23.8515 52.9981 24.8816 53.6305 25.9814C54.5757 27.626 55.0672 29.4119 55.335 31.2766C55.6155 33.2302 55.5919 35.1863 55.479 37.1477C55.3853 38.7788 55.31 40.4106 55.4225 42.0438C55.4593 42.5764 55.5525 43.0972 55.7459 43.6005C55.8685 43.9191 56.0995 44.063 56.4124 44.1261C56.7402 44.1921 57.0793 44.2293 57.3918 44.3405C58.6662 44.7939 59.3996 46.1417 59.1156 47.4638C58.8285 48.799 57.6268 49.7127 56.2768 49.634C54.9766 49.5582 53.7924 49.1578 52.736 48.3929C52.6274 48.3145 52.5456 48.318 52.4204 48.3627C50.5268 49.0423 48.6101 49.6309 46.5668 49.5617C44.8513 49.504 43.2562 49.0576 41.8921 47.9596C40.3163 46.6914 39.525 45.0346 39.4817 43.0211C39.4196 40.1363 40.5609 37.8138 42.7499 35.9574C44.3971 34.5605 46.2968 33.8297 48.4285 33.6656C48.9558 33.6249 49.4888 33.6595 50.0818 33.6595L50.0813 33.6603ZM49.8415 40.7319C49.8573 40.731 49.873 40.7301 49.8888 40.7288C49.8888 40.3205 49.8879 39.9122 49.8888 39.5043C49.8897 39.1976 49.8665 39.17 49.561 39.1499C48.0823 39.0518 46.839 39.5148 45.8176 40.6203C45.2097 41.278 44.9782 42.0277 44.98 42.8911C44.9809 43.3817 45.2273 43.6841 45.6609 43.8547C46.1646 44.053 46.6977 44.1514 47.2263 44.0512C48.0906 43.8875 48.9427 43.6622 49.8017 43.4701C49.9881 43.4285 50.0332 43.3396 50.017 43.1502C49.9479 42.3449 49.898 41.5384 49.8411 40.7323L49.8415 40.7319Z" fill="black"/>
<path d="M75 28.6753C75.0092 30.1199 73.9489 31.3247 72.5489 31.4551C71.0597 31.5938 69.7967 30.6254 69.5486 29.1239C69.465 28.6189 69.3061 28.1708 68.9556 27.79C68.5 27.2955 68.0804 27.1949 67.469 27.4767C66.6406 27.8583 66.0262 28.4749 65.5548 29.246C65.4222 29.4631 65.2669 29.6661 65.1347 29.8836C65.0857 29.9646 65.0428 30.0683 65.0472 30.1598C65.1198 31.7186 65.1986 33.2769 65.28 34.8353C65.343 36.0366 65.403 37.2383 65.48 38.4391C65.5667 39.7922 65.6866 41.1436 65.764 42.4972C65.8389 43.807 65.9391 45.1198 65.9181 46.4292C65.8931 47.988 64.6743 49.1276 63.179 49.1184C61.6832 49.1092 60.5301 47.9626 60.4474 46.4016C60.3546 44.6472 60.2714 42.8919 60.169 41.1379C60.0378 38.896 59.8863 36.6558 59.7537 34.4139C59.6684 32.9728 59.626 31.5286 59.5192 30.0893C59.4286 28.8688 59.2872 27.6518 59.1415 26.436C58.9525 24.8554 59.8618 23.5158 61.3519 23.2313C61.951 23.1171 62.5335 23.1906 63.0731 23.4764C63.2643 23.5775 63.3842 23.553 63.5549 23.4322C64.4223 22.8182 65.3369 22.2961 66.3863 22.0484C68.4659 21.5579 70.3997 21.8476 72.0859 23.2081C73.6837 24.4974 74.7068 26.1455 74.965 28.218C74.9838 28.3699 74.9887 28.5231 75 28.6758V28.6753Z" fill="black"/>
</g>
<defs>
<clipPath id="clip0_1_112">
<rect width="75" height="49.7261" fill="white"/>
</clipPath>
</defs>
</svg>
