<svg width="2033" height="859" viewBox="0 0 2033 859" fill="none" xmlns="http://www.w3.org/2000/svg">
<path d="M1860.01 785.145C1949.09 787.422 2009.06 743.522 2027.91 721.287L2038.67 732.905C2043.1 639.607 2048.73 386.297 2035.86 119.434C2022.98 -147.43 2292.17 271.817 2126.67 23.4793C2173.55 -67.6561 1890.4 147.026 1811.55 98.3421C1743.2 56.1354 1349.22 125.497 1097.56 137.897C845.905 150.298 278.975 78.2639 141.913 131.197C25.7513 176.058 13.8511 185.25 -15.3251 200.852L-8.0868 537.212C-2.65265 646.725 -64.1193 702.882 11.6333 760.963C106.324 833.564 407.666 859.462 527.571 840.3C829.101 792.112 879.885 855.539 1015.95 858.741C1152.02 861.943 1236.07 812.429 1328.3 782.289C1420.52 752.149 1456.6 800.733 1524.94 787.241C1593.28 773.748 1748.66 782.298 1860.01 785.145Z" fill="#39FF14"/>
</svg>
