<svg width="100" height="100" viewBox="0 0 100 100" fill="none" xmlns="http://www.w3.org/2000/svg">
<path d="M34.4 24C28.6566 24 24 28.6563 24 34.4V55.2C24 60.9434 28.6566 65.6 34.4 65.6L34.426 65.613C35.0292 71.4084 39.9848 76 45.9388 76C46.7734 76 53.4268 76 55.2 76C64.4352 76 76 64.4352 76 55.2C76 53.4268 76 47.2258 76 45.9388C76 39.984 71.411 35.0092 65.6156 34.4057L65.6 34.4C65.6 28.6563 60.9434 24 55.2 24H34.4ZM34.4 29.2H55.2C58.073 29.2 60.4 31.528 60.4 34.4H45.9388C39.5792 34.4 34.4 39.5784 34.4 45.9388V60.4C31.527 60.4 29.2 58.073 29.2 55.2V34.4C29.2 31.528 31.527 29.2 34.4 29.2ZM45.9388 39.6H63H64.4612C67.9504 39.6 70.8 42.4504 70.8 45.9388C70.8 46.8644 70.8 50.065 70.8 52.6C68.2858 52.6 64.9708 52.6 64.1388 52.6C57.7792 52.6 52.6 57.7792 52.6 64.1388V70.8C49.961 70.8 46.5394 70.8 45.9388 70.8C42.4496 70.8 39.6 67.9504 39.6 64.4612V63V45.9388C39.6 42.4501 42.4496 39.6 45.9388 39.6ZM64.1388 57.8C64.8694 57.8 67.901 57.7948 70.3346 57.7948C68.7252 62.935 62.9922 68.5848 57.8182 70.358L57.8 64.1388C57.8 60.6496 60.6496 57.8 64.1388 57.8Z" fill="white"/>
</svg>
