<svg xmlns="http://www.w3.org/2000/svg" width="90" height="90" viewBox="0 0 90 90">
  <defs>
    <linearGradient id="claim-a" x1="12.843%" x2="90.647%" y1="79.883%" y2="11.884%">
      <stop offset="0%" stop-color="#0F2525"/>
      <stop offset="100%" stop-color="#0F2525"/>
    </linearGradient>
  </defs>
  <g fill="none" fill-rule="evenodd">
    <circle cx="45" cy="45" r="45" fill="url(#claim-a)" transform="rotate(90 45 45)"/>
    <path fill="#BDFF00" fill-rule="nonzero" stroke="#0C1E28" stroke-width=".2" d="M59.4820237,24.3944704 C57.6995516,25.4734536 55.7950813,25.9979454 53.6596147,25.9979454 C50.9206575,25.9979454 48.0582022,25.1314589 45.2882455,24.292472 C42.3807909,23.4124858 39.3738379,22.502 36.3398853,22.502 C33.8289245,22.502 31.5859596,23.1209903 29.4819925,24.3944704 L29,24.6869659 L29,65.9993203 L30.9999687,65.9993203 L30.9999687,43.6371698 C32.646443,42.7421837 34.3974157,42.3061905 36.3398853,42.3061905 C39.0783425,42.3061905 41.9412978,43.172677 44.7097545,44.0111639 C47.6182091,44.8916502 50.6261621,45.8021359 53.6596147,45.8021359 C56.1705754,45.8021359 58.4140404,45.1831456 60.5165075,43.9101655 L60.999,43.61867 L60.999,23.4734848 L59.4820237,24.3944704 Z M58.9995312,42.4756879 C57.3565569,43.367674 55.6055843,43.8021672 53.6596147,43.8021672 C50.9216575,43.8021672 48.0597022,42.9356807 45.2882455,42.0966938 C42.3807909,41.2167076 39.3738379,40.3062218 36.3398853,40.3062218 C34.4194153,40.3062218 32.6614428,40.6667162 30.9999687,41.4042046 L30.9999687,25.828448 C32.6429431,24.936462 34.3939157,24.5019687 36.3398853,24.5019687 C39.0783425,24.5019687 41.9412978,25.3684552 44.7097545,26.2069421 C47.6177091,27.0874284 50.6251621,27.9979141 53.6596147,27.9979141 C55.5800847,27.9979141 57.3375572,27.6374198 58.9995312,26.8999313 L58.9995312,42.4756879 Z"/>
  </g>
</svg>
